<svg width="91" height="91" viewBox="0 0 91 91" fill="none" xmlns="http://www.w3.org/2000/svg">
    <g clip-path="url(#clip0_213_44)">
        <path fill-rule="evenodd" clip-rule="evenodd"
              d="M79.846 18.5208L51.209 1.52175C47.791 -0.50725 43.578 -0.50725 40.16 1.52175L11.523 18.5208C8.106 20.5498 6 24.2988 6 28.3568V62.3548C6 66.4118 8.106 70.1627 11.524 72.1917L40.161 89.1878C41.87 90.2028 43.776 90.7087 45.685 90.7087C47.593 90.7087 49.499 90.2028 51.208 89.1878L79.845 72.1917C83.263 70.1627 85.37 66.4118 85.37 62.3548V28.3568C85.37 24.2988 83.263 20.5498 79.846 18.5208Z"
              fill="#FEFEFE"/>
        <path fill-rule="evenodd" clip-rule="evenodd"
              d="M41.162 87.4472L12.525 70.4512C9.724 68.7882 7.984 65.6862 7.984 62.3542V28.3572C7.984 25.0252 9.724 21.9232 12.524 20.2612L41.162 3.26224C42.535 2.44724 44.099 2.01624 45.685 2.01624C47.27 2.01624 48.834 2.44724 50.208 3.26224L78.845 20.2612C81.205 21.6622 82.797 24.0882 83.245 26.8092C82.295 24.7822 80.153 24.2312 77.657 25.6892L50.565 42.4232C47.187 44.3982 44.696 46.6142 44.694 50.6872V84.0702C44.692 86.5092 45.677 88.0892 47.19 88.5472C46.693 88.6332 46.192 88.6932 45.685 88.6932C44.099 88.6932 42.535 88.2622 41.162 87.4472ZM79.846 18.5202L51.209 1.52224C49.5 0.507244 47.592 0.000244141 45.685 0.000244141C43.777 0.000244141 41.869 0.507244 40.16 1.52224L11.523 18.5202C8.106 20.5492 6 24.2992 6 28.3572V62.3542C6 66.4112 8.106 70.1622 11.524 72.1912L40.161 89.1882C41.871 90.2022 43.777 90.7092 45.685 90.7092C47.593 90.7092 49.499 90.2022 51.208 89.1882L79.846 72.1912C83.264 70.1622 85.37 66.4112 85.37 62.3542V28.3572C85.37 24.2992 83.264 20.5492 79.846 18.5202Z"
              fill="#3E474A"/>
        <path fill-rule="evenodd" clip-rule="evenodd"
              d="M72.3394 65.6412L65.2084 69.9092C65.0194 70.0192 64.8804 70.1432 64.8794 70.3702V72.2362C64.8794 72.4642 65.0324 72.5592 65.2214 72.4482L72.4624 68.0472C72.6514 67.9372 72.6804 67.7262 72.6814 67.4992V65.8532C72.6814 65.6262 72.5284 65.5312 72.3394 65.6412Z"
              fill="#47B353"/>
        <path fill-rule="evenodd" clip-rule="evenodd"
              d="M57.1545 49.9344C57.3855 49.8174 57.5755 49.9614 57.5785 50.2634L57.6025 52.7304C58.6355 52.3194 59.5325 52.2094 60.3455 52.3974C60.5215 52.4444 60.5995 52.6844 60.5275 52.9694L59.9845 55.1554C59.9425 55.3204 59.8495 55.4874 59.7375 55.5914C59.6905 55.6374 59.6425 55.6734 59.5945 55.6974C59.5215 55.7344 59.4495 55.7464 59.3805 55.7324C59.0095 55.6484 58.1275 55.4554 56.7395 56.1584C55.2835 56.8954 54.7745 58.1604 54.7845 59.0994C54.7965 60.2204 55.3715 60.5604 57.3575 60.5944C60.0035 60.6384 61.1465 61.7944 61.1745 64.4594C61.2015 67.0764 59.8045 69.8864 57.6675 71.6084L57.7145 74.0504C57.7175 74.3444 57.5265 74.6814 57.2955 74.7984L55.8495 75.6314C55.6175 75.7484 55.4275 75.6044 55.4245 75.3104L55.3995 72.9084C54.1605 73.4234 52.9055 73.5474 52.1035 73.2254C51.9525 73.1664 51.8875 72.9434 51.9475 72.6894L52.4715 70.4814C52.5135 70.3074 52.6055 70.1334 52.7305 70.0224C52.7745 69.9794 52.8205 69.9464 52.8665 69.9234C52.9495 69.8814 53.0305 69.8724 53.0995 69.8984C53.9635 70.1894 55.0685 70.0534 56.1315 69.5154C57.4815 68.8324 58.3845 67.4554 58.3705 66.0874C58.3575 64.8464 57.6855 64.3304 56.0515 64.3184C53.9715 64.3244 52.0325 63.9144 52.0005 60.8524C51.9745 58.3314 53.2855 55.7084 55.3605 54.0494L55.3345 51.5844C55.3315 51.2814 55.5165 50.9484 55.7545 50.8284L57.1545 49.9344Z"
              fill="#FEFEFE"/>
    </g>
    <defs>
        <clipPath id="clip0_213_44">
            <rect width="90.71" height="90.71" fill="white"/>
        </clipPath>
    </defs>
</svg>
