<svg width="512" height="512" viewBox="0 0 512 512" fill="none" xmlns="http://www.w3.org/2000/svg">
<path d="M255.702 0L477.405 128V384L255.702 512L34 384V128L255.702 0Z" fill="#673AB8"/>
<path d="M100.205 375.317C125.421 408.179 215.481 381.398 301.36 315.501C387.238 249.604 436.415 169.544 411.2 136.683C385.984 103.821 295.924 130.601 210.045 196.498C124.167 262.395 74.9895 342.455 100.205 375.317Z" stroke="white" stroke-width="16"/>
<path d="M411.2 375.317C436.415 342.455 387.238 262.395 301.36 196.498C215.481 130.601 125.421 103.821 100.205 136.683C74.9895 169.544 124.167 249.604 210.045 315.501C295.924 381.398 385.984 408.179 411.2 375.317Z" stroke="white" stroke-width="16"/>
<path d="M255.703 290C274.48 290 289.703 274.778 289.703 256C289.703 237.222 274.48 222 255.703 222C236.925 222 221.703 237.222 221.703 256C221.703 274.778 236.925 290 255.703 290Z" fill="white"/>
</svg>
