<svg width="79" height="91" viewBox="0 0 79 91" fill="none" xmlns="http://www.w3.org/2000/svg">
    <g clip-path="url(#clip0_986_5450)">
        <path
            d="M61.7449 83.1182L59.9528 33.7066L56.707 20.6794L78.3715 22.9729V82.7445L65.1375 90.3823L61.7449 83.1182Z"
            fill="#24386C"/>
        <path
            d="M78.3695 22.9696L65.1356 30.6126L37.8254 24.6221L5.85901 37.6372L0.533203 22.9696L19.989 11.7348L39.4509 0.5L58.9073 11.7348L78.3695 22.9696Z"
            fill="#7589BE"/>
        <path
            d="M0.53418 22.9696L13.7681 30.6126L21.4397 53.4279L47.3421 74.1528L39.4525 90.3781L19.9906 79.1427L0.53418 67.9079V22.969"
            fill="#B2BFE8"/>
        <path d="M48.2259 62.1643L39.4521 75.0988V90.3793L51.9019 83.196L58.3166 73.6174" fill="#24386C"/>
        <path d="M39.4579 59.823L27.0029 38.2589L29.6856 31.1115L39.8842 26.167L51.9019 38.2592L39.4579 59.823Z"
              fill="#7589BE"/>
        <path d="M27.0033 38.2571L39.4528 45.4404V59.8185L27.9386 60.3138L20.9736 51.4202L27.0033 38.2571Z"
              fill="#B2BFE8"/>
        <path d="M39.4521 45.4393L51.9019 38.2566L60.3747 52.3647L50.1214 60.8363L39.4521 59.8177V45.4393Z"
              fill="#24386C"/>
        <path
            d="M51.9021 83.1951L65.1361 90.3787V30.6135L52.2913 23.2007L39.452 15.7866L26.6075 23.2001L13.7686 30.6135V60.2716L26.6075 67.6847L39.4523 75.0984L51.9021 67.9088V83.1951ZM51.9021 52.6282L39.452 59.8173L27.0025 52.6282V38.2559L39.452 31.0669L51.9018 38.2559L51.9021 52.6282Z"
            fill="#DC244C"/>
        <path d="M39.4583 75.1037V59.8208L27.0732 52.6931V67.9505L39.4583 75.1037Z"
              fill="url(#paint0_linear_986_5450)"/>
    </g>
    <defs>
        <linearGradient id="paint0_linear_986_5450" x1="1037.22" y1="1057.63" x2="-196.922" y2="1057.63"
                        gradientUnits="userSpaceOnUse">
            <stop stop-color="#FF3364"/>
            <stop offset="1" stop-color="#C91540" stop-opacity="0"/>
        </linearGradient>
        <clipPath id="clip0_986_5450">
            <rect width="77.84" height="90" fill="white" transform="translate(0.532227 0.5)"/>
        </clipPath>
    </defs>
</svg>
