<svg width="40" height="40" viewBox="0 0 40 40" fill="none" xmlns="http://www.w3.org/2000/svg">
<path d="M38.31 15.97H25.54C25.3295 15.9714 25.1209 15.9309 24.9262 15.8509C24.7314 15.771 24.5545 15.6532 24.4057 15.5044C24.2569 15.3555 24.1391 15.1786 24.0591 14.9839C23.9792 14.7892 23.9387 14.5805 23.94 14.37V1.60003C23.94 1.39039 23.8986 1.18281 23.8181 0.989246C23.7375 0.795684 23.6195 0.619958 23.4708 0.472181C23.3221 0.324405 23.1456 0.207495 22.9516 0.128181C22.7575 0.0488665 22.5497 0.00871311 22.34 0.0100316H17.56C17.3504 0.00871311 17.1426 0.0488665 16.9485 0.128181C16.7544 0.207495 16.578 0.324405 16.4293 0.472181C16.2806 0.619958 16.1625 0.795684 16.082 0.989246C16.0015 1.18281 15.96 1.39039 15.96 1.60003V14.37C15.9614 14.5805 15.9209 14.7892 15.8409 14.9839C15.761 15.1786 15.6432 15.3555 15.4944 15.5044C15.3455 15.6532 15.1686 15.771 14.9739 15.8509C14.7792 15.9309 14.5705 15.9714 14.36 15.97H9.58003C9.36955 15.9714 9.16089 15.9309 8.96617 15.8509C8.77145 15.771 8.59454 15.6532 8.4457 15.5044C8.29686 15.3555 8.17906 15.1786 8.09912 14.9839C8.01918 14.7892 7.9787 14.5805 7.98003 14.37V1.60003C7.98136 1.38955 7.94088 1.18089 7.86094 0.98617C7.78101 0.79145 7.6632 0.614539 7.51436 0.4657C7.36552 0.316861 7.18861 0.199057 6.99389 0.119119C6.79917 0.0391822 6.59052 -0.00129638 6.38003 3.1649e-05H1.59003C1.38039 2.75026e-05 1.17281 0.0414831 0.979246 0.122013C0.785684 0.202542 0.609958 0.320556 0.462182 0.469262C0.314405 0.617968 0.197495 0.79443 0.118181 0.988494C0.0388665 1.18256 -0.00128688 1.39039 3.1649e-05 1.60003V38.32C-0.00129638 38.5305 0.0391822 38.7392 0.119119 38.9339C0.199057 39.1286 0.316861 39.3055 0.4657 39.4544C0.614539 39.6032 0.79145 39.721 0.98617 39.8009C1.18089 39.8809 1.38955 39.9214 1.60003 39.92H38.31C38.5205 39.9214 38.7292 39.8809 38.9239 39.8009C39.1186 39.721 39.2955 39.6032 39.4444 39.4544C39.5932 39.3055 39.711 39.1286 39.7909 38.9339C39.8709 38.7392 39.9114 38.5305 39.91 38.32V17.6C39.9154 17.387 39.8779 17.1751 39.7998 16.9769C39.7216 16.7787 39.6045 16.5982 39.4552 16.4462C39.306 16.2941 39.1277 16.1736 38.931 16.0918C38.7342 16.01 38.5231 15.9686 38.31 15.97ZM31.89 29.53C31.8913 29.8447 31.8305 30.1566 31.711 30.4477C31.5915 30.7388 31.4156 31.0035 31.1936 31.2265C30.9715 31.4495 30.7076 31.6264 30.417 31.7472C30.1263 31.8679 29.8147 31.93 29.5 31.93H26.3C25.9853 31.93 25.6737 31.8679 25.3831 31.7472C25.0925 31.6264 24.8286 31.4495 24.6065 31.2265C24.3844 31.0035 24.2086 30.7388 24.0891 30.4477C23.9696 30.1566 23.9087 29.8447 23.91 29.53V26.34C23.9087 26.0253 23.9696 25.7135 24.0891 25.4223C24.2086 25.1312 24.3844 24.8666 24.6065 24.6436C24.8286 24.4206 25.0925 24.2436 25.3831 24.1229C25.6737 24.0022 25.9853 23.94 26.3 23.94H29.5C29.8147 23.94 30.1263 24.0022 30.417 24.1229C30.7076 24.2436 30.9715 24.4206 31.1936 24.6436C31.4156 24.8666 31.5915 25.1312 31.711 25.4223C31.8305 25.7135 31.8913 26.0253 31.89 26.34V29.53Z" fill="#FF6600"/>
</svg>
