<svg width="738" height="738" viewBox="0 0 738 738" fill="none" xmlns="http://www.w3.org/2000/svg">
    <path
        d="M343.99 554.633C259.22 551.73 178.59 532.553 115.89 500.403C109.986 497.373 97.1001 490.203 97.1001 489.943C97.1001 489.856 99.1451 490.82 101.645 492.096C132.335 507.766 170.905 521.156 209.845 529.656C271.605 543.146 339.245 546.736 405.545 540.026C468.105 533.696 526.545 518.336 576.445 495.106C621.305 474.226 657.225 447.506 681.145 417.276C717.885 370.776 722.795 316.876 694.675 269.076C676.465 238.096 646.075 210.806 604.355 187.976C600.36 185.789 597.226 184 597.389 184C597.936 184 615.589 192.51 621.109 195.44C648.059 209.72 669.489 224.92 688.189 243.02C711.679 265.76 726.429 289.18 733.649 315.18C740.321 339.23 739.076 365.9 730.175 389.55C718.205 421.37 693.705 450.65 657.875 476C599.675 517.17 516.375 544.44 423.975 552.54C398.905 554.739 369.465 555.51 343.985 554.637L343.99 554.633Z"
        fill="url(#paint0_radial_461_9)"/>
    <path
        d="M555.99 445.633H555.538C555.33 445.558 555.029 445.509 554.634 445.477C554.239 445.441 553.803 445.427 553.326 445.427C552.754 445.427 552.155 445.502 551.527 445.664C550.899 445.822 550.289 446.009 549.697 446.227V457.357H544.245V440.737H549.697V443.119C549.946 442.902 550.291 442.628 550.733 442.298C551.174 441.968 551.577 441.704 551.94 441.506C552.335 441.279 552.794 441.084 553.319 440.922C553.843 440.759 554.339 440.678 554.807 440.678C554.984 440.678 555.181 440.683 555.398 440.691C555.617 440.701 555.814 440.714 555.99 440.741L555.99 445.633ZM536.16 457.793C532.858 457.793 530.326 457.043 528.566 455.544C526.806 454.045 525.925 451.909 525.925 449.137C525.925 446.424 526.746 444.259 528.387 442.641C530.028 441.023 532.323 440.214 535.273 440.214C537.952 440.214 539.967 440.899 541.317 442.271C542.667 443.642 543.342 445.605 543.342 448.16V450.024H531.392C531.442 450.794 531.615 451.437 531.906 451.955C532.198 452.473 532.581 452.884 533.059 453.19C533.526 453.496 534.072 453.716 534.695 453.849C535.318 453.982 535.998 454.048 536.735 454.048C537.369 454.048 537.992 453.986 538.604 453.849C539.217 453.716 539.777 453.541 540.286 453.323C540.734 453.135 541.146 452.933 541.524 452.717C541.903 452.5 542.212 452.307 542.451 452.14H543.028V456.416C542.58 456.584 542.173 456.739 541.805 456.882C541.436 457.025 540.929 457.171 540.286 457.319C539.694 457.468 539.084 457.583 538.456 457.667C537.828 457.754 537.062 457.793 536.158 457.793L536.16 457.793ZM537.967 446.903C537.931 445.808 537.668 444.974 537.165 444.402C536.662 443.83 535.89 443.544 534.852 443.544C533.792 443.544 532.964 443.845 532.367 444.447C531.77 445.049 531.44 445.867 531.378 446.903L537.967 446.903ZM527.067 440.733L518.234 463.443H512.377L515.025 456.947L508.607 440.727H514.34L518.016 451.147L521.459 440.727L527.067 440.733ZM503.197 453.013V449.551C502.273 449.638 501.525 449.717 500.954 449.78C500.382 449.843 499.822 449.97 499.271 450.158C498.793 450.316 498.421 450.555 498.158 450.875C497.892 451.197 497.761 451.623 497.761 452.155C497.761 452.935 497.981 453.469 498.423 453.76C498.864 454.052 499.517 454.196 500.378 454.196C500.856 454.196 501.344 454.096 501.842 453.886C502.341 453.679 502.792 453.388 503.197 453.013ZM503.197 455.588C502.823 455.884 502.488 456.15 502.192 456.388C501.895 456.624 501.498 456.861 501 457.098C500.512 457.325 500.037 457.498 499.574 457.616C499.112 457.74 498.466 457.794 497.634 457.794C496.087 457.794 494.802 457.301 493.778 456.314C492.756 455.328 492.244 454.085 492.244 452.585C492.244 451.352 492.503 450.356 493.022 449.596C493.542 448.836 494.289 448.235 495.265 447.791C496.252 447.338 497.43 447.021 498.801 446.844C500.172 446.666 501.647 446.528 503.225 446.43V446.343C503.225 445.425 502.869 444.792 502.158 444.442C501.447 444.092 500.379 443.916 498.957 443.916C498.314 443.916 497.56 444.028 496.698 444.248C495.837 444.47 494.995 444.754 494.174 445.099H493.707V441.089C494.248 440.941 495.12 440.767 496.324 440.563C497.528 440.362 498.744 440.261 499.969 440.261C502.981 440.261 505.175 440.737 506.551 441.689C507.927 442.64 508.615 444.093 508.615 446.047V457.347H503.194L503.197 455.588ZM493.017 457.349H477.537V435.319H483.363V453.149H493.021L493.017 457.349ZM462.237 453.013V449.551C461.313 449.638 460.565 449.717 459.994 449.78C459.422 449.843 458.862 449.97 458.312 450.158C457.834 450.316 457.463 450.555 457.198 450.875C456.933 451.197 456.801 451.623 456.801 452.155C456.801 452.935 457.021 453.469 457.463 453.76C457.904 454.052 458.557 454.196 459.418 454.196C459.897 454.196 460.385 454.096 460.882 453.886C461.38 453.679 461.832 453.388 462.237 453.013ZM462.237 455.588C461.863 455.884 461.528 456.15 461.232 456.388C460.935 456.624 460.538 456.861 460.04 457.098C459.552 457.325 459.077 457.498 458.615 457.616C458.153 457.74 457.507 457.794 456.675 457.794C455.128 457.794 453.843 457.301 452.82 456.314C451.797 455.328 451.286 454.085 451.286 452.585C451.286 451.352 451.545 450.356 452.064 449.596C452.584 448.836 453.331 448.235 454.307 447.791C455.294 447.338 456.472 447.021 457.843 446.844C459.214 446.666 460.689 446.528 462.267 446.43V446.343C462.267 445.425 461.911 444.792 461.2 444.442C460.489 444.092 459.422 443.916 457.999 443.916C457.355 443.916 456.602 444.028 455.74 444.248C454.878 444.47 454.037 444.754 453.216 445.099H452.749V441.089C453.29 440.941 454.161 440.767 455.366 440.563C456.57 440.362 457.786 440.261 459.011 440.261C462.023 440.261 464.217 440.737 465.593 441.689C466.969 442.64 467.657 444.093 467.657 446.047V457.347H462.236L462.237 455.588ZM450.327 457.349H444.875V440.729H450.327V457.349ZM450.482 438.369H444.719V434.329H450.482V438.369ZM442.627 457.349H437.174V455.618C436.821 455.895 436.418 456.19 435.967 456.506C435.516 456.821 435.118 457.059 434.776 457.216C434.34 457.414 433.909 457.561 433.482 457.661C433.056 457.76 432.547 457.809 431.956 457.809C429.962 457.809 428.383 457.024 427.22 455.456C426.057 453.888 425.475 451.791 425.475 449.167C425.475 447.717 425.673 446.459 426.066 445.394C426.461 444.329 427.006 443.401 427.702 442.612C428.336 441.892 429.104 441.322 430.008 440.903C430.911 440.483 431.867 440.274 432.874 440.274C433.788 440.274 434.538 440.361 435.125 440.548C435.712 440.731 436.395 441.014 437.174 441.399V434.326H442.626L442.627 457.349ZM437.174 452.762V444.609C436.904 444.481 436.552 444.375 436.115 444.291C435.679 444.204 435.305 444.166 434.992 444.166C433.683 444.166 432.701 444.6 432.041 445.468C431.38 446.336 431.052 447.549 431.052 449.108C431.052 450.746 431.314 451.929 431.839 452.659C432.363 453.388 433.212 453.754 434.386 453.754C434.864 453.754 435.346 453.666 435.835 453.487C436.323 453.309 436.768 453.067 437.174 452.762ZM418.664 457.793C415.361 457.793 412.83 457.043 411.07 455.544C409.31 454.045 408.43 451.909 408.43 449.137C408.43 446.424 409.251 444.259 410.892 442.641C412.533 441.023 414.828 440.214 417.778 440.214C420.457 440.214 422.471 440.899 423.821 442.271C425.171 443.642 425.846 445.605 425.846 448.16V450.024H413.897C413.948 450.794 414.12 451.437 414.411 451.955C414.703 452.473 415.086 452.884 415.564 453.19C416.031 453.496 416.576 453.716 417.2 453.849C417.823 453.982 418.503 454.048 419.241 454.048C419.875 454.048 420.498 453.986 421.11 453.849C421.723 453.716 422.283 453.541 422.792 453.323C423.239 453.135 423.651 452.933 424.03 452.717C424.408 452.5 424.719 452.307 424.957 452.14H425.533V456.416C425.086 456.584 424.679 456.739 424.31 456.882C423.941 457.025 423.435 457.171 422.791 457.319C422.2 457.468 421.589 457.583 420.961 457.667C420.334 457.754 419.567 457.793 418.663 457.793L418.664 457.793ZM420.471 446.903C420.434 445.808 420.173 444.974 419.669 444.402C419.166 443.83 418.394 443.544 417.356 443.544C416.297 443.544 415.468 443.845 414.871 444.447C414.275 445.049 413.945 445.867 413.883 446.903L420.471 446.903ZM402.091 457.353V449.052C402.091 448.234 402.079 447.543 402.041 446.98C402.004 446.418 401.916 445.959 401.76 445.604C401.605 445.249 401.363 444.99 401.036 444.827C400.708 444.664 400.249 444.583 399.657 444.583C399.241 444.583 398.831 444.67 398.426 444.842C398.021 445.015 397.579 445.259 397.102 445.574V457.354H391.618V449.053C391.618 448.243 391.605 447.556 391.567 446.989C391.53 446.422 391.435 445.96 391.279 445.606C391.123 445.251 390.882 444.992 390.554 444.829C390.227 444.666 389.773 444.584 389.191 444.584C388.744 444.584 388.308 444.684 387.883 444.881C387.457 445.078 387.043 445.311 386.637 445.576V457.356H381.185V440.736H386.637V442.571C387.53 441.851 388.371 441.289 389.161 440.884C389.951 440.479 390.838 440.277 391.825 440.277C392.895 440.277 393.834 440.519 394.645 441.002C395.455 441.485 396.073 442.205 396.499 443.162C397.548 442.234 398.537 441.522 399.467 441.024C400.396 440.526 401.339 440.277 402.294 440.277C403.104 440.277 403.831 440.401 404.475 440.647C405.119 440.894 405.664 441.264 406.111 441.757C406.6 442.29 406.966 442.924 407.209 443.658C407.454 444.393 407.575 445.352 407.575 446.536V457.356L402.091 457.353ZM376.532 457.678C374.31 457.678 372.692 457.245 371.68 456.376C370.667 455.508 370.161 454.087 370.161 452.115V444.347H368.073V440.737H370.161V435.987H375.612V440.737H380.862V444.347H375.612V450.236C375.612 450.818 375.613 451.326 375.626 451.76C375.637 452.195 375.714 452.583 375.874 452.929C376.02 453.274 376.277 453.548 376.645 453.75C377.014 453.952 377.552 454.054 378.257 454.054C378.549 454.054 378.93 453.992 379.401 453.876C379.874 453.751 380.204 453.649 380.39 453.551H380.857V457.206C380.266 457.354 379.637 457.47 378.972 457.553C378.307 457.641 377.492 457.679 376.526 457.679L376.532 457.678ZM363.522 457.803C362.079 457.803 360.757 457.63 359.558 457.285C358.359 456.94 357.317 456.407 356.435 455.687C355.563 454.967 354.881 454.062 354.393 452.972C353.905 451.882 353.661 450.597 353.661 449.117C353.661 447.529 353.927 446.177 354.456 445.063C354.985 443.948 355.702 443.031 356.606 442.311C357.477 441.619 358.504 441.11 359.683 440.779C360.862 440.448 362.09 440.283 363.367 440.283C364.333 440.283 365.299 440.395 366.265 440.601C367.231 440.812 368.202 441.151 369.178 441.615V446.054H368.477C368.258 445.857 367.991 445.639 367.675 445.402C367.358 445.166 367.012 444.949 366.639 444.751C366.244 444.544 365.798 444.369 365.299 444.225C364.801 444.082 364.245 444.011 363.632 444.011C362.24 444.012 361.163 444.472 360.4 445.395C359.636 446.318 359.256 447.558 359.256 449.116C359.256 450.783 359.663 452.026 360.479 452.845C361.294 453.665 362.377 454.073 363.727 454.073C364.412 454.074 365.015 453.999 365.534 453.852C366.053 453.703 366.5 453.527 366.874 453.319C367.237 453.112 367.549 452.897 367.809 452.675C368.068 452.453 368.292 452.253 368.479 452.076H369.18V456.515C368.869 456.643 368.508 456.791 368.098 456.958C367.688 457.126 367.27 457.265 366.844 457.373C366.315 457.511 365.819 457.617 365.356 457.691C364.894 457.766 364.284 457.803 363.526 457.803L363.522 457.803ZM346.882 457.803C343.579 457.803 341.048 457.053 339.288 455.554C337.528 454.055 336.648 451.919 336.648 449.147C336.648 446.434 337.468 444.269 339.109 442.651C340.75 441.033 343.044 440.224 345.993 440.224C348.673 440.224 350.688 440.909 352.038 442.281C353.388 443.652 354.063 445.615 354.063 448.17V450.034H342.112C342.162 450.803 342.335 451.447 342.627 451.965C342.917 452.483 343.302 452.894 343.78 453.201C344.247 453.506 344.793 453.726 345.416 453.86C346.039 453.993 346.719 454.059 347.457 454.059C348.091 454.059 348.714 453.996 349.327 453.86C349.94 453.726 350.5 453.552 351.009 453.334C351.456 453.146 351.868 452.944 352.247 452.727C352.625 452.511 352.934 452.318 353.174 452.151H353.75V456.427C353.304 456.595 352.896 456.75 352.527 456.893C352.158 457.036 351.652 457.181 351.008 457.33C350.417 457.478 349.806 457.594 349.178 457.677C348.55 457.765 347.784 457.803 346.88 457.803L346.882 457.803ZM348.689 446.913C348.666 445.818 348.39 444.984 347.887 444.412C347.382 443.84 346.612 443.554 345.573 443.554C344.514 443.554 343.685 443.855 343.088 444.457C342.491 445.058 342.161 445.877 342.099 446.913L348.689 446.913ZM337.739 445.64H337.287C337.078 445.565 336.777 445.515 336.384 445.484C335.989 445.447 335.553 445.434 335.075 445.434C334.503 445.434 333.904 445.509 333.276 445.671C332.647 445.829 332.038 446.015 331.446 446.233V457.363H325.994V440.743H331.446V443.125C331.695 442.909 332.04 442.635 332.482 442.305C332.923 441.975 333.325 441.711 333.689 441.513C334.084 441.286 334.543 441.091 335.067 440.929C335.591 440.766 336.087 440.684 336.555 440.684C336.732 440.684 336.928 440.689 337.146 440.697C337.364 440.708 337.562 440.72 337.738 440.747L337.739 445.64ZM323.729 457.36H318.277V440.74H323.729V457.36ZM323.884 438.38H318.12V434.34H323.884V438.38ZM317.07 446.37C317.07 448.422 316.598 450.259 315.652 451.882C314.707 453.505 313.513 454.75 312.069 455.618C310.865 456.358 309.553 456.834 308.136 457.046C306.718 457.257 305.21 457.364 303.611 457.364H296.352V435.334H303.549C305.179 435.334 306.706 435.434 308.129 435.631C309.552 435.828 310.886 436.307 312.133 437.066C313.66 437.993 314.864 439.244 315.747 440.817C316.63 442.39 317.071 444.242 317.071 446.373L317.07 446.37ZM311.088 446.32C311.088 444.87 310.826 443.629 310.301 442.599C309.777 441.568 308.969 440.762 307.879 440.18C307.09 439.765 306.261 439.538 305.394 439.498C304.527 439.462 303.491 439.436 302.286 439.436H302.174V453.226H302.286C303.594 453.226 304.698 453.203 305.596 453.164C306.494 453.114 307.348 452.855 308.159 452.371C309.115 451.8 309.841 451.01 310.34 450.004C310.838 448.998 311.087 447.77 311.087 446.32L311.088 446.32ZM280.538 457.81C277.236 457.81 274.704 457.06 272.944 455.561C271.184 454.062 270.304 451.926 270.304 449.154C270.304 446.441 271.125 444.276 272.765 442.658C274.406 441.04 276.701 440.231 279.651 440.231C282.33 440.231 284.345 440.916 285.695 442.288C287.045 443.659 287.72 445.622 287.72 448.177V450.041H275.77C275.82 450.81 275.993 451.454 276.285 451.972C276.575 452.49 276.96 452.901 277.438 453.207C277.905 453.512 278.451 453.732 279.074 453.865C279.696 453.999 280.377 454.065 281.115 454.065C281.749 454.065 282.372 454.002 282.984 453.865C283.596 453.732 284.157 453.558 284.666 453.34C285.113 453.152 285.525 452.95 285.904 452.733C286.282 452.517 286.592 452.324 286.83 452.157H287.407V456.433C286.96 456.601 286.553 456.756 286.184 456.899C285.815 457.042 285.308 457.187 284.665 457.336C284.073 457.484 283.463 457.6 282.835 457.683C282.206 457.771 281.441 457.809 280.537 457.809L280.538 457.81ZM282.345 446.92C282.322 445.825 282.046 444.991 281.543 444.419C281.04 443.847 280.268 443.561 279.23 443.561C278.171 443.561 277.342 443.862 276.745 444.464C276.147 445.065 275.819 445.884 275.756 446.92L282.345 446.92ZM269.315 457.37H263.863V434.35H269.315V457.37ZM262.861 448.832C262.861 451.486 262.153 453.626 260.735 455.254C259.317 456.882 257.57 457.695 255.493 457.695C254.62 457.695 253.862 457.595 253.219 457.413C252.575 457.225 251.89 456.935 251.163 456.54V463.465H245.711V440.755H251.163V442.486C251.963 441.835 252.778 441.308 253.609 440.903C254.44 440.498 255.4 440.296 256.491 440.296C258.516 440.296 260.084 441.061 261.196 442.589C262.307 444.118 262.863 446.199 262.863 448.833L262.861 448.832ZM257.284 448.931C257.284 447.313 257.022 446.139 256.497 445.409C255.973 444.68 255.155 444.314 254.043 444.314C253.555 444.314 253.069 444.389 252.586 444.536C252.103 444.684 251.628 444.906 251.161 445.202V453.562C251.451 453.687 251.771 453.764 252.119 453.814C252.466 453.864 252.88 453.889 253.357 453.889C254.686 453.889 255.673 453.477 256.317 452.653C256.961 451.83 257.283 450.589 257.283 448.932L257.284 448.931ZM238.094 457.369V449.068C238.094 448.25 238.081 447.559 238.044 446.996C238.021 446.435 237.92 445.975 237.764 445.62C237.608 445.265 237.367 445.006 237.039 444.843C236.712 444.68 236.252 444.599 235.66 444.599C235.244 444.599 234.834 444.686 234.43 444.858C234.025 445.031 233.583 445.275 233.106 445.59V457.37H227.622V449.069C227.622 448.26 227.609 447.572 227.573 447.005C227.536 446.439 227.44 445.976 227.285 445.622C227.129 445.267 226.887 445.008 226.56 444.845C226.232 444.682 225.779 444.601 225.197 444.601C224.751 444.601 224.314 444.7 223.889 444.897C223.463 445.094 223.047 445.327 222.643 445.592V457.372H217.191V440.752H222.643V442.587C223.536 441.867 224.377 441.305 225.167 440.9C225.956 440.495 226.844 440.293 227.831 440.293C228.901 440.293 229.841 440.535 230.651 441.018C231.462 441.501 232.079 442.221 232.505 443.178C233.554 442.25 234.543 441.538 235.473 441.04C236.402 440.542 237.345 440.293 238.3 440.293C239.109 440.293 239.837 440.417 240.481 440.663C241.125 440.909 241.67 441.279 242.117 441.773C242.605 442.306 242.971 442.94 243.215 443.674C243.459 444.408 243.581 445.368 243.581 446.552V457.372L238.094 457.369ZM214.924 457.369H209.472V440.749H214.924V457.369ZM215.08 438.389H209.316V434.349H215.08V438.389ZM198.67 457.769C196.894 457.769 195.334 457.606 193.989 457.281C192.644 456.956 191.395 456.551 190.242 456.068V450.83H190.771C191.934 451.767 193.217 452.487 194.619 452.99C196.021 453.493 197.382 453.745 198.7 453.745C199.033 453.745 199.471 453.708 200.016 453.645C200.562 453.57 201 453.467 201.332 453.32C201.737 453.152 202.08 452.918 202.36 452.618C202.64 452.316 202.781 451.92 202.781 451.427C202.781 450.874 202.554 450.426 202.096 450.08C201.639 449.735 201.093 449.483 200.46 449.325C199.671 449.128 198.827 448.94 197.929 448.763C197.031 448.585 196.192 448.368 195.413 448.112C193.616 447.51 192.329 446.701 191.55 445.685C190.772 444.669 190.382 443.396 190.382 441.867C190.382 439.805 191.302 438.136 193.139 436.858C194.977 435.581 197.272 434.942 200.024 434.942C201.405 434.942 202.779 435.075 204.144 435.342C205.51 435.608 206.733 435.968 207.813 436.422V441.453H207.299C206.437 440.753 205.386 440.161 204.144 439.677C202.904 439.193 201.628 438.952 200.32 438.952C199.811 438.952 199.353 438.988 198.949 439.051C198.544 439.126 198.118 439.253 197.672 439.451C197.308 439.609 196.994 439.844 196.729 440.154C196.464 440.464 196.332 440.813 196.332 441.198C196.332 441.759 196.542 442.207 196.963 442.537C197.385 442.867 198.196 443.166 199.401 443.432C200.18 443.6 200.93 443.762 201.652 443.92C202.375 444.078 203.145 444.295 203.965 444.572C205.575 445.125 206.772 445.867 207.556 446.799C208.341 447.732 208.732 448.962 208.732 450.491C208.732 452.681 207.827 454.442 206.014 455.773C204.202 457.105 201.753 457.771 198.669 457.771L198.67 457.769Z"
        fill="#173556"/>
    <path
        d="M553.99 420.333H404.19V207.233H460.55V379.733H553.98L553.99 420.333ZM389.49 313.933C389.49 333.783 384.919 351.553 375.78 367.253C366.637 382.953 355.08 394.993 341.12 403.393C329.47 410.55 316.78 415.153 303.07 417.203C289.36 419.255 274.76 420.28 259.29 420.28H189.07V207.18H258.69C274.46 207.18 289.23 208.134 302.99 210.043C316.75 211.952 329.66 216.58 341.72 223.923C356.49 232.893 368.14 244.993 376.68 260.213C385.219 275.433 389.49 293.353 389.49 313.963V313.933ZM331.62 313.503C331.62 299.473 329.083 287.473 324.01 277.503C318.936 267.531 311.13 259.733 300.58 254.103C292.945 250.095 284.93 247.901 276.54 247.519C268.151 247.138 258.13 246.946 246.48 246.946H245.425V380.346H246.48C259.14 380.346 269.81 380.132 278.5 379.702C287.19 379.273 295.45 376.72 303.29 372.044C312.533 366.51 319.57 358.874 324.39 349.144C329.212 339.411 331.623 327.534 331.624 313.504L331.62 313.503ZM81.52 424.103C64.34 424.103 49.25 422.529 36.24 419.38C23.23 416.231 11.15 412.318 0 407.64V356.97H5.12396C16.374 366.035 28.784 373 42.344 377.87C55.904 382.737 69.064 385.17 81.824 385.17C85.039 385.17 89.283 384.836 94.554 384.169C99.828 383.502 104.073 382.451 107.284 381.02C111.202 379.398 114.517 377.131 117.23 374.221C119.942 371.311 121.299 367.47 121.299 362.701C121.299 357.357 119.089 353.015 114.668 349.671C110.247 346.331 104.973 343.898 98.848 342.371C91.213 340.463 83.048 338.649 74.358 336.932C65.668 335.214 57.558 333.115 50.018 330.634C32.638 324.813 20.178 316.984 12.648 307.164C5.11301 297.335 1.34796 285.024 1.34796 270.234C1.34796 250.294 10.239 234.144 28.018 221.784C45.798 209.424 67.998 203.244 94.628 203.244C107.988 203.244 121.278 204.532 134.488 207.109C147.698 209.686 159.528 213.169 169.978 217.559V266.229H165.005C156.666 259.454 146.495 253.729 134.485 249.049C122.475 244.373 110.145 242.035 97.485 242.035C92.562 242.035 88.142 242.369 84.225 243.036C80.307 243.705 76.188 244.992 71.865 246.901C68.349 248.428 65.31 250.694 62.748 253.7C60.186 256.706 58.905 260.07 58.905 263.79C58.9048 269.229 60.939 273.547 65.008 276.74C69.077 279.937 76.938 282.823 88.588 285.4C96.123 287.022 103.378 288.597 110.368 290.123C117.35 291.65 124.808 293.749 132.748 296.421C148.318 301.765 159.898 308.941 167.488 317.961C175.073 326.979 178.868 338.881 178.868 353.671C178.868 374.851 170.102 391.891 152.568 404.771C135.038 417.651 111.348 424.091 81.518 424.091L81.52 424.103Z"
        fill="#173556"/>
    <path fill-rule="evenodd" clip-rule="evenodd"
          d="M173.59 518.533C172.201 518.533 171.077 519.508 171.077 520.712C171.077 521.915 172.202 522.891 173.59 522.891C174.977 522.891 176.103 521.915 176.103 520.712C176.103 519.509 174.977 518.533 173.59 518.533ZM281.29 538.073C279.121 538.073 277.363 539.597 277.363 541.48C277.363 543.361 279.121 544.885 281.29 544.885C283.459 544.885 285.217 543.361 285.217 541.48C285.217 539.597 283.459 538.073 281.29 538.073ZM225.4 530.694C223.664 530.694 222.257 531.915 222.257 533.42C222.257 534.926 223.664 536.145 225.4 536.145C227.136 536.145 228.541 534.926 228.541 533.42C228.541 531.915 227.135 530.694 225.4 530.694ZM342.5 540.264C339.788 540.264 337.591 542.169 337.591 544.521C337.591 546.873 339.789 548.778 342.5 548.778C345.21 548.778 347.409 546.873 347.409 544.521C347.409 542.169 345.21 540.264 342.5 540.264ZM405.71 536.978C402.323 536.978 399.576 539.36 399.576 542.299C399.576 545.239 402.323 547.622 405.71 547.622C409.099 547.622 411.848 545.239 411.848 542.299C411.848 539.361 409.099 536.978 405.71 536.978ZM469.06 526.158C464.823 526.158 461.39 529.138 461.39 532.81C461.39 536.484 464.823 539.463 469.06 539.463C473.297 539.463 476.732 536.484 476.732 532.81C476.732 529.137 473.298 526.158 469.06 526.158ZM532.45 506.358C527.155 506.358 522.863 510.08 522.863 514.672C522.863 519.264 527.155 522.988 532.45 522.988C537.745 522.988 542.039 519.264 542.039 514.672C542.039 510.08 537.745 506.358 532.45 506.358ZM593.15 480.008C587.267 480.008 582.5 484.145 582.5 489.248C582.5 494.351 587.269 498.487 593.15 498.487C599.033 498.487 603.8 494.351 603.8 489.248C603.8 484.145 599.031 480.008 593.15 480.008ZM648.48 442.128C641.943 442.128 636.64 446.723 636.64 452.388C636.64 458.057 641.94 462.658 648.48 462.658C655.019 462.658 660.32 458.061 660.32 452.388C660.32 446.719 655.022 442.128 648.48 442.128ZM694.11 388.828C685.611 388.828 678.72 394.804 678.72 402.178C678.72 409.548 685.609 415.528 694.11 415.528C702.611 415.528 709.5 409.553 709.5 402.178C709.5 394.809 702.611 388.828 694.11 388.828ZM713.71 333.538C707.173 333.538 701.87 338.133 701.87 343.808C701.87 349.477 707.168 354.068 713.71 354.068C720.252 354.068 725.55 349.473 725.55 343.808C725.55 338.138 720.252 333.538 713.71 333.538ZM707.102 299.028C711.773 299.028 715.559 295.747 715.559 291.696C715.559 287.647 711.774 284.364 707.102 284.364C702.434 284.364 698.649 287.647 698.649 291.696C698.649 295.747 702.434 299.028 707.102 299.028ZM686.452 259.148C689.789 259.148 692.49 256.802 692.49 253.91C692.49 251.018 689.788 248.674 686.452 248.674C683.117 248.674 680.412 251.018 680.412 253.91C680.412 256.802 683.117 259.148 686.452 259.148ZM663.752 225.708C661.529 225.708 659.728 227.272 659.728 229.201C659.728 231.128 661.53 232.692 663.752 232.692C665.976 232.692 667.78 231.128 667.78 229.201C667.78 227.272 665.977 225.708 663.752 225.708ZM639.592 212.008C641.075 212.008 642.277 210.966 642.277 209.68C642.277 208.395 641.075 207.352 639.592 207.352C638.109 207.352 636.909 208.394 636.909 209.68C636.909 210.965 638.109 212.008 639.592 212.008Z"
          fill="#173556"/>
    <defs>
        <radialGradient id="paint0_radial_461_9" cx="0" cy="0" r="1" gradientUnits="userSpaceOnUse"
                        gradientTransform="translate(676.233 429.823) rotate(-117.132) scale(238.455 404.902)">
            <stop stop-color="#656F71"/>
            <stop offset="1" stop-color="#D3D4CF"/>
        </radialGradient>
    </defs>
</svg>
