<svg width="51" height="51" viewBox="0 0 51 51" fill="none" xmlns="http://www.w3.org/2000/svg">
    <g clip-path="url(#clip0_460_11)">
        <path fill-rule="evenodd" clip-rule="evenodd"
              d="M25.517 10C18.712 10 14.46 13.382 12.758 20.146C15.31 16.764 18.287 15.496 21.689 16.341C23.63 16.823 25.018 18.223 26.553 19.773C29.055 22.297 31.951 25.218 38.275 25.218C45.079 25.218 49.332 21.836 51.033 15.073C48.482 18.455 45.505 19.723 42.103 18.877C40.161 18.395 38.773 16.995 37.238 15.446C34.736 12.92 31.841 10 25.517 10ZM12.758 25.218C5.954 25.218 1.701 28.6 0 35.364C2.552 31.982 5.529 30.714 8.93 31.559C10.872 32.041 12.26 33.441 13.795 34.991C16.297 37.515 19.192 40.436 25.517 40.436C32.321 40.436 36.574 37.055 38.275 30.291C35.723 33.673 32.746 34.941 29.344 34.096C27.403 33.613 26.015 32.213 24.48 30.664C21.978 28.14 19.082 25.218 12.758 25.218Z"
              fill="#38BDF8"/>
    </g>
    <defs>
        <clipPath id="clip0_460_11">
            <rect width="51" height="51" fill="white"/>
        </clipPath>
    </defs>
</svg>
