<svg width="876" height="876" viewBox="0 0 876 876" fill="none" xmlns="http://www.w3.org/2000/svg">
<path d="M438 0L825 218.975V657.025L438 876L51 657.025V218.975L438 0Z" fill="white"/>
<path d="M756.9 641.399L451.8 814.058V679.612L641.9 574.976L756.9 641.399ZM777.8 622.492V261.469L666.2 325.991V558.07L777.8 622.492ZM119.9 641.399L425 814.058V679.612L234.8 574.976L119.9 641.399ZM99 622.492V261.469L210.6 325.991V558.07L99 622.492ZM112.1 238.061L425 61V190.944L224.5 301.282L222.9 302.183L112.1 238.061ZM764.7 238.061L451.8 61V190.944L652.3 301.182L653.9 302.083L764.7 238.061Z" fill="#8ED6FB"/>
<path d="M424.6 655.749L237 552.514V348.144L424.6 456.481V655.749ZM451.4 655.749L639 552.614V348.144L451.4 456.481V655.749ZM249.7 324.535L438 221L626.3 324.535L438 433.273L249.7 324.535Z" fill="#1C78C0"/>
</svg>
