<svg width="600" height="600" viewBox="0 0 600 600" fill="none" xmlns="http://www.w3.org/2000/svg">
<g clip-path="url(#clip0_6_46)">
<path d="M95.5 465C131.318 445.895 148.33 444.33 175.5 451L206 526L305 571L397 522.5L478 469.5C493.367 465.421 502.65 465.133 520 467C529.291 468.6 541.634 472.692 565.5 484.5L581.5 498C590 505.5 606.5 514 610.5 524L625.5 697.5L-13 692.5L-7 484.5C30.9079 470.146 50.2894 465.779 79 469.5C85.9207 469.55 89.5075 468.467 95.5 465Z" fill="url(#paint0_linear_6_46)"/>
<path d="M95.5 465C131.318 445.895 148.33 444.33 175.5 451L206 526L305 571L397 522.5L478 469.5C493.367 465.421 502.65 465.133 520 467C529.291 468.6 541.634 472.692 565.5 484.5L581.5 498C590 505.5 606.5 514 610.5 524L625.5 697.5L-13 692.5L-7 484.5C30.9079 470.146 50.2894 465.779 79 469.5C85.9207 469.55 89.5075 468.467 95.5 465Z" fill="url(#paint1_linear_6_46)"/>
<path d="M95.5 465C131.318 445.895 148.33 444.33 175.5 451L206 526L305 571L397 522.5L478 469.5C493.367 465.421 502.65 465.133 520 467C529.291 468.6 541.634 472.692 565.5 484.5L581.5 498C590 505.5 606.5 514 610.5 524L625.5 697.5L-13 692.5L-7 484.5C30.9079 470.146 50.2894 465.779 79 469.5C85.9207 469.55 89.5075 468.467 95.5 465Z" stroke="black"/>
<mask id="mask0_6_46" style="mask-type:alpha" maskUnits="userSpaceOnUse" x="-14" y="446" width="402" height="271">
<path d="M95.5 465C131.318 445.895 148.33 444.33 175.5 451L206 526L305 571L387 520L360.5 715.5L-13 692.5L-7 484.5C30.9079 470.146 50.2894 465.779 79 469.5C85.9207 469.55 89.5075 468.467 95.5 465Z" fill="url(#paint2_linear_6_46)" stroke="black"/>
</mask>
<g mask="url(#mask0_6_46)">
<g style="mix-blend-mode:darken">
<ellipse cx="269" cy="468.5" rx="268" ry="148.5" fill="url(#paint3_radial_6_46)"/>
</g>
</g>
<path d="M302 379L200 429L190.5 496.5L298 568L419 476L403.5 420L302 379Z" fill="url(#paint4_linear_6_46)"/>
<path d="M188.5 256.5C182.043 249.867 178.734 248.179 173.5 249.5C170.5 250.5 169.5 252.5 169.5 255C169.5 257.5 173 274.5 173.5 278.5C174 282.5 179 299.5 180.5 305C182 310.5 183 314.5 188.5 322.5V256.5Z" fill="#32221D" stroke="black"/>
<path d="M427 248C426.5 246.5 423.837 245.124 421.5 245L423 268C426.5 259 427.5 249.5 427 248Z" fill="#F1E5E8" stroke="black"/>
<path fill-rule="evenodd" clip-rule="evenodd" d="M199 391.5C186.519 391.747 166.63 412.79 166.5 423C158.744 430.801 155.497 436.824 154 454C156.841 501.22 172.866 522.909 213.873 554.029C215.358 555.21 216.897 556.365 218.5 557.503C224.527 561.778 231.473 565.802 240 570C236.993 578.679 241.975 580.944 258.5 582C298.261 587.8 324.372 586.972 377 579C425.503 541.706 463.556 510.5 503 439.5C508 430.5 497.805 420.26 488.5 414.5C478 408 414 385 395 384C445.329 402.589 479 420.5 481.5 436.5C484 452.5 468.5 474.5 452 496C435.5 517.5 400 546.997 373.5 558C347 569.003 320 579 258.5 582L315 570C337.835 565.554 350.646 560.484 373.5 550.5C416.559 533.565 434.817 488.962 437.5 467.5C439.5 451.5 431.269 432.11 420.5 412.5C413.824 397.132 408.696 390.962 395 388L374.5 415.5C378.842 420.462 382.981 424.993 386.747 429.117C398.16 441.612 406.151 450.361 406 456C405.759 465.022 404.671 469.624 401 477C398.344 482.338 381.435 493.999 360.545 508.406C342.112 521.118 320.578 535.969 303 550.5C305.099 548.573 291.511 541.919 273.669 533.181C263.615 528.257 252.21 522.672 241.5 516.899C241.044 516.12 240.588 515.341 240.132 514.563C220.938 481.814 202.266 449.955 234.5 427C226.693 414.551 219.732 407.534 213.222 405.722L199 391.5Z" fill="url(#paint5_radial_6_46)"/>
<path fill-rule="evenodd" clip-rule="evenodd" d="M199 391.5C186.519 391.747 166.63 412.79 166.5 423C158.744 430.801 155.497 436.824 154 454C156.841 501.22 172.866 522.909 213.873 554.029C215.358 555.21 216.897 556.365 218.5 557.503C224.527 561.778 231.473 565.802 240 570C236.993 578.679 241.975 580.944 258.5 582C298.261 587.8 324.372 586.972 377 579C425.503 541.706 463.556 510.5 503 439.5C508 430.5 497.805 420.26 488.5 414.5C478 408 414 385 395 384C445.329 402.589 479 420.5 481.5 436.5C484 452.5 468.5 474.5 452 496C435.5 517.5 400 546.997 373.5 558C347 569.003 320 579 258.5 582L315 570C337.835 565.554 350.646 560.484 373.5 550.5C416.559 533.565 434.817 488.962 437.5 467.5C439.5 451.5 431.269 432.11 420.5 412.5C413.824 397.132 408.696 390.962 395 388L374.5 415.5C378.842 420.462 382.981 424.993 386.747 429.117C398.16 441.612 406.151 450.361 406 456C405.759 465.022 404.671 469.624 401 477C398.344 482.338 381.435 493.999 360.545 508.406C342.112 521.118 320.578 535.969 303 550.5C305.099 548.573 291.511 541.919 273.669 533.181C263.615 528.257 252.21 522.672 241.5 516.899C241.044 516.12 240.588 515.341 240.132 514.563C220.938 481.814 202.266 449.955 234.5 427C226.693 414.551 219.732 407.534 213.222 405.722L199 391.5Z" fill="url(#paint6_linear_6_46)" fill-opacity="0.3"/>
<path d="M395 388C408.696 390.962 413.824 397.132 420.5 412.5C431.269 432.11 439.5 451.5 437.5 467.5C434.817 488.962 416.559 533.565 373.5 550.5C350.646 560.484 337.835 565.554 315 570L258.5 582C320 579 347 569.003 373.5 558C400 546.997 435.5 517.5 452 496C468.5 474.5 484 452.5 481.5 436.5C479 420.5 445.329 402.589 395 384V388Z" fill="url(#paint7_linear_6_46)"/>
<path d="M166.5 423C166.63 412.79 186.519 391.747 199 391.5L213.222 405.722M166.5 423C160.634 465.076 168.87 485.317 185 521C195.033 535.455 203.057 545.428 213.873 554.029M166.5 423C158.744 430.801 155.497 436.824 154 454C156.841 501.22 172.866 522.909 213.873 554.029M258.5 582C241.975 580.944 236.993 578.679 240 570C231.473 565.802 224.527 561.778 218.5 557.503M258.5 582C271.5 579 286.538 565.611 303 550.5M258.5 582L315 570C337.835 565.554 350.646 560.484 373.5 550.5C416.559 533.565 434.817 488.962 437.5 467.5C439.5 451.5 431.269 432.11 420.5 412.5C413.824 397.132 408.696 390.962 395 388M258.5 582C298.261 587.8 324.372 586.972 377 579C425.503 541.706 463.556 510.5 503 439.5C508 430.5 497.805 420.26 488.5 414.5C478 408 414 385 395 384M258.5 582C320 579 347 569.003 373.5 558C400 546.997 435.5 517.5 452 496C468.5 474.5 484 452.5 481.5 436.5C479 420.5 445.329 402.589 395 384M303 550.5C320.578 535.969 342.112 521.118 360.545 508.406C381.435 493.999 398.344 482.338 401 477C404.671 469.624 405.759 465.022 406 456C406.151 450.361 398.16 441.612 386.747 429.117C382.981 424.993 378.842 420.462 374.5 415.5L395 388M303 550.5C305.099 548.573 291.511 541.919 273.669 533.181C263.615 528.257 252.21 522.672 241.5 516.899M234.5 427C226.693 414.551 219.732 407.534 213.222 405.722M234.5 427C202.266 449.955 220.938 481.814 240.132 514.563C240.588 515.341 241.044 516.12 241.5 516.899M234.5 427L213.222 405.722M218.5 557.503C216.897 556.365 215.358 555.21 213.873 554.029M218.5 557.503C216.923 556.331 215.381 555.173 213.873 554.029M395 388V384M241.5 516.899C225.945 508.513 211.856 499.731 205.5 492C190 473.149 183 437 188 427C196.237 410.527 204.306 403.241 213.222 405.722" stroke="black"/>
<path d="M175 183.5C178 151 178 125.5 216 97.5C254 69.5 356 70 382.5 91C409 112 413.5 128 423.5 159C428.5 182 426 203 423.5 245.5C426.5 313 426.5 358 400 407C380.141 440.63 354.5 467 336 475.5C317.5 484 292.5 483 277 477C261.5 471 224.5 440 205 413.5C181 373 189.5 303.5 184 257.5C176.229 226.716 176.072 210.65 175 183.5Z" fill="url(#paint8_linear_6_46)"/>
<path d="M175 183.5C178 151 178 125.5 216 97.5C254 69.5 356 70 382.5 91C409 112 413.5 128 423.5 159C428.5 182 426 203 423.5 245.5C426.5 313 426.5 358 400 407C380.141 440.63 354.5 467 336 475.5C317.5 484 292.5 483 277 477C261.5 471 224.5 440 205 413.5C181 373 189.5 303.5 184 257.5C176.229 226.716 176.072 210.65 175 183.5Z" fill="url(#paint9_radial_6_46)"/>
<path d="M175 183.5C178 151 178 125.5 216 97.5C254 69.5 356 70 382.5 91C409 112 413.5 128 423.5 159C428.5 182 426 203 423.5 245.5C426.5 313 426.5 358 400 407C380.141 440.63 354.5 467 336 475.5C317.5 484 292.5 483 277 477C261.5 471 224.5 440 205 413.5C181 373 189.5 303.5 184 257.5C176.229 226.716 176.072 210.65 175 183.5Z" fill="url(#paint10_radial_6_46)"/>
<path d="M175 183.5C178 151 178 125.5 216 97.5C254 69.5 356 70 382.5 91C409 112 413.5 128 423.5 159C428.5 182 426 203 423.5 245.5C426.5 313 426.5 358 400 407C380.141 440.63 354.5 467 336 475.5C317.5 484 292.5 483 277 477C261.5 471 224.5 440 205 413.5C181 373 189.5 303.5 184 257.5C176.229 226.716 176.072 210.65 175 183.5Z" fill="url(#paint11_radial_6_46)"/>
<path d="M175 183.5C178 151 178 125.5 216 97.5C254 69.5 356 70 382.5 91C409 112 413.5 128 423.5 159C428.5 182 426 203 423.5 245.5C426.5 313 426.5 358 400 407C380.141 440.63 354.5 467 336 475.5C317.5 484 292.5 483 277 477C261.5 471 224.5 440 205 413.5C181 373 189.5 303.5 184 257.5C176.229 226.716 176.072 210.65 175 183.5Z" fill="url(#paint12_radial_6_46)"/>
<path d="M175 183.5C178 151 178 125.5 216 97.5C254 69.5 356 70 382.5 91C409 112 413.5 128 423.5 159C428.5 182 426 203 423.5 245.5C426.5 313 426.5 358 400 407C380.141 440.63 354.5 467 336 475.5C317.5 484 292.5 483 277 477C261.5 471 224.5 440 205 413.5C181 373 189.5 303.5 184 257.5C176.229 226.716 176.072 210.65 175 183.5Z" stroke="black"/>
<path d="M230 226.5L229.939 226.5L229.88 226.515C220.164 228.919 214.524 230.672 205.229 234.023C207.833 230.016 210.486 226.104 214.231 223.086C218.339 219.774 223.791 217.517 231.991 217.5C251.314 218.226 263.727 223.109 283.017 232.574C282.228 233.02 281.129 233.376 279.766 233.629C277.986 233.959 275.821 234.101 273.459 234.072C268.742 234.013 263.292 233.271 258.65 232.023C247.297 227.937 240.977 226.508 230 226.5Z" fill="#282213" stroke="black"/>
<path d="M178.496 142.566L178.621 141.626L177.774 142.054C171.214 145.369 166.879 148.647 163.628 152.831C160.787 156.487 158.796 160.808 156.854 166.384C156.399 158.328 156.061 151.855 157.268 145.482C158.597 138.467 161.807 131.546 168.888 122.815L169.395 122.19L168.611 122.012C166.082 121.439 163.8 122.157 161.245 124.039C159.127 125.599 156.776 127.993 153.885 131.197C156.886 123.288 159.884 117.465 164.093 112.814C168.722 107.699 174.854 103.963 184.176 100.468L185.201 100.084L184.239 99.5607C180.986 97.7929 178.218 96.6494 175.042 95.951C172.292 95.3464 169.253 95.0789 165.351 95.0153C168.666 93.1499 171.365 91.8632 174.024 91.0027C177.091 90.0101 180.125 89.5778 184.01 89.4999L184.605 89.488L184.491 88.9039C183.023 81.4096 182.671 77.0481 184.082 70.3915C184.713 72.2063 185.412 73.7181 186.318 75.1563C187.498 77.0292 189.015 78.7561 191.149 80.8564L191.821 81.5175L191.992 80.5906C192.853 75.9141 195.714 68.8233 199.566 60.9897C203.41 53.1703 208.219 44.6566 212.943 37.1505C217.672 29.6379 222.299 23.1599 225.78 19.3967C226.649 18.4575 227.439 17.6959 228.134 17.1321C228.837 16.5622 229.411 16.221 229.85 16.0839C230.274 15.9514 230.479 16.0304 230.606 16.1583C230.77 16.3228 230.937 16.6917 230.993 17.4141C230.972 17.4645 230.943 17.5315 230.908 17.6144C230.823 17.8177 230.699 18.1164 230.543 18.4995C230.23 19.2656 229.79 20.3696 229.279 21.7231C228.256 24.4291 226.947 28.1364 225.802 32.1368C224.657 36.1342 223.672 40.4402 223.304 44.3399C222.939 48.2174 223.174 51.7891 224.565 54.2463L225.095 55.182L225.469 54.174C231.958 36.6933 237.449 27.4206 250.453 13.3562C249.535 16.7103 248.979 19.4596 248.922 22.0338C248.854 25.1199 249.503 27.9277 251.048 31.2128L251.369 31.8959L251.872 31.3336C256.865 25.76 260.899 22.0373 265.134 19.1511C269.024 16.5 273.1 14.5428 278.277 12.5094C274.351 18.8642 272.353 23.5239 271.655 27.6906C270.909 32.1456 271.658 35.9848 273.02 40.6404L273.38 41.8711L273.948 40.7215C281.515 25.4047 286.901 17.5617 299.43 6.65362C299.182 11.096 299.173 14.7065 299.629 18.3225C300.126 22.2575 301.17 26.1786 303.031 31.1746L303.243 31.7409L303.759 31.4275C315.074 24.5652 321.602 22.2623 332.313 19.4542C326.265 25.4373 323.394 29.0361 320.552 34.7782L320.27 35.3476L320.89 35.4877C325.82 36.6021 329.752 37.2117 333.792 36.719C337.838 36.2256 341.947 34.6336 347.258 31.4281L347.331 31.384L347.386 31.3181C349.007 29.3524 350.037 27.5342 350.124 25.0026C350.202 22.7187 349.51 19.9033 347.917 15.9191C353.553 18.338 357.49 21.4812 361.279 24.8158C361.909 25.3701 362.536 25.9305 363.166 26.4941C366.563 29.5328 370.063 32.6632 374.746 35.4305L374.77 35.4449L374.796 35.4564C378.989 37.332 382.093 38.1681 384.922 38.1005C387.614 38.0362 390.002 37.155 392.784 35.683C395.362 40.834 396.826 44.9147 396.932 49.1554C397.041 53.5165 395.716 58.1117 392.555 64.2718L392.168 65.0259L393.015 64.9998C401.673 64.7326 406.359 65.7475 414.131 68.7025C413.296 69.608 412.585 70.4246 412.11 71.38C411.556 72.4959 411.338 73.765 411.502 75.546L411.522 75.7605L411.691 75.8934C424.487 85.9286 430.277 92.4633 439.198 102.532C439.94 103.37 440.704 104.232 441.496 105.123C438.239 105.566 436.028 106.214 434.342 107.206C432.485 108.3 431.313 109.784 430.078 111.732L429.826 112.13L430.207 112.405C439.158 118.867 444.028 123.504 451.255 131.694C448.138 130.023 445.428 128.763 442.612 127.858C439.067 126.719 435.376 126.148 430.515 126L429.518 125.97L430.091 126.787C436.685 136.198 441.247 143.625 444.369 151.324C447.265 158.465 448.93 165.86 449.811 175.313C443.639 164.742 439.947 159.914 433.844 154.137L433.046 153.382L433 154.479C431.09 200.009 428.482 218.381 423.33 244.313C421.76 206.637 419.876 183.73 416.498 149.95L416.489 149.861L416.449 149.78L404.949 126.28L404.945 126.271L404.94 126.262L394.94 107.762L394.822 107.544L394.576 107.506L375.084 104.507L359.1 101.51L345.608 98.5119L345.51 98.49L345.411 98.5081L312.455 104.5H295H294.921L294.845 104.525L273.477 111.482L260.612 108.513L260.508 108.489L260.402 108.51L245.504 111.489L231.605 108.511L231.503 108.489L231.402 108.51L221.451 110.5H211H210.825L210.688 110.61C206.904 113.636 204.611 116.178 202.823 119.115C201.087 121.967 199.838 125.178 198.156 129.506L198.077 129.707C193.525 133.8 191.474 139.18 189.775 145.675C189.277 147.577 188.809 149.574 188.319 151.667C187.117 156.797 185.779 162.507 183.529 168.832L183.516 168.87L183.508 168.909C178.999 193.364 178.576 210.698 181.996 248.15C170.753 207.091 173.699 178.544 178.496 142.566Z" fill="url(#paint13_radial_6_46)"/>
<path d="M178.496 142.566L178.621 141.626L177.774 142.054C171.214 145.369 166.879 148.647 163.628 152.831C160.787 156.487 158.796 160.808 156.854 166.384C156.399 158.328 156.061 151.855 157.268 145.482C158.597 138.467 161.807 131.546 168.888 122.815L169.395 122.19L168.611 122.012C166.082 121.439 163.8 122.157 161.245 124.039C159.127 125.599 156.776 127.993 153.885 131.197C156.886 123.288 159.884 117.465 164.093 112.814C168.722 107.699 174.854 103.963 184.176 100.468L185.201 100.084L184.239 99.5607C180.986 97.7929 178.218 96.6494 175.042 95.951C172.292 95.3464 169.253 95.0789 165.351 95.0153C168.666 93.1499 171.365 91.8632 174.024 91.0027C177.091 90.0101 180.125 89.5778 184.01 89.4999L184.605 89.488L184.491 88.9039C183.023 81.4096 182.671 77.0481 184.082 70.3915C184.713 72.2063 185.412 73.7181 186.318 75.1563C187.498 77.0292 189.015 78.7561 191.149 80.8564L191.821 81.5175L191.992 80.5906C192.853 75.9141 195.714 68.8233 199.566 60.9897C203.41 53.1703 208.219 44.6566 212.943 37.1505C217.672 29.6379 222.299 23.1599 225.78 19.3967C226.649 18.4575 227.439 17.6959 228.134 17.1321C228.837 16.5622 229.411 16.221 229.85 16.0839C230.274 15.9514 230.479 16.0304 230.606 16.1583C230.77 16.3228 230.937 16.6917 230.993 17.4141C230.972 17.4645 230.943 17.5315 230.908 17.6144C230.823 17.8177 230.699 18.1164 230.543 18.4995C230.23 19.2656 229.79 20.3696 229.279 21.7231C228.256 24.4291 226.947 28.1364 225.802 32.1368C224.657 36.1342 223.672 40.4402 223.304 44.3399C222.939 48.2174 223.174 51.7891 224.565 54.2463L225.095 55.182L225.469 54.174C231.958 36.6933 237.449 27.4206 250.453 13.3562C249.535 16.7103 248.979 19.4596 248.922 22.0338C248.854 25.1199 249.503 27.9277 251.048 31.2128L251.369 31.8959L251.872 31.3336C256.865 25.76 260.899 22.0373 265.134 19.1511C269.024 16.5 273.1 14.5428 278.277 12.5094C274.351 18.8642 272.353 23.5239 271.655 27.6906C270.909 32.1456 271.658 35.9848 273.02 40.6404L273.38 41.8711L273.948 40.7215C281.515 25.4047 286.901 17.5617 299.43 6.65362C299.182 11.096 299.173 14.7065 299.629 18.3225C300.126 22.2575 301.17 26.1786 303.031 31.1746L303.243 31.7409L303.759 31.4275C315.074 24.5652 321.602 22.2623 332.313 19.4542C326.265 25.4373 323.394 29.0361 320.552 34.7782L320.27 35.3476L320.89 35.4877C325.82 36.6021 329.752 37.2117 333.792 36.719C337.838 36.2256 341.947 34.6336 347.258 31.4281L347.331 31.384L347.386 31.3181C349.007 29.3524 350.037 27.5342 350.124 25.0026C350.202 22.7187 349.51 19.9033 347.917 15.9191C353.553 18.338 357.49 21.4812 361.279 24.8158C361.909 25.3701 362.536 25.9305 363.166 26.4941C366.563 29.5328 370.063 32.6632 374.746 35.4305L374.77 35.4449L374.796 35.4564C378.989 37.332 382.093 38.1681 384.922 38.1005C387.614 38.0362 390.002 37.155 392.784 35.683C395.362 40.834 396.826 44.9147 396.932 49.1554C397.041 53.5165 395.716 58.1117 392.555 64.2718L392.168 65.0259L393.015 64.9998C401.673 64.7326 406.359 65.7475 414.131 68.7025C413.296 69.608 412.585 70.4246 412.11 71.38C411.556 72.4959 411.338 73.765 411.502 75.546L411.522 75.7605L411.691 75.8934C424.487 85.9286 430.277 92.4633 439.198 102.532C439.94 103.37 440.704 104.232 441.496 105.123C438.239 105.566 436.028 106.214 434.342 107.206C432.485 108.3 431.313 109.784 430.078 111.732L429.826 112.13L430.207 112.405C439.158 118.867 444.028 123.504 451.255 131.694C448.138 130.023 445.428 128.763 442.612 127.858C439.067 126.719 435.376 126.148 430.515 126L429.518 125.97L430.091 126.787C436.685 136.198 441.247 143.625 444.369 151.324C447.265 158.465 448.93 165.86 449.811 175.313C443.639 164.742 439.947 159.914 433.844 154.137L433.046 153.382L433 154.479C431.09 200.009 428.482 218.381 423.33 244.313C421.76 206.637 419.876 183.73 416.498 149.95L416.489 149.861L416.449 149.78L404.949 126.28L404.945 126.271L404.94 126.262L394.94 107.762L394.822 107.544L394.576 107.506L375.084 104.507L359.1 101.51L345.608 98.5119L345.51 98.49L345.411 98.5081L312.455 104.5H295H294.921L294.845 104.525L273.477 111.482L260.612 108.513L260.508 108.489L260.402 108.51L245.504 111.489L231.605 108.511L231.503 108.489L231.402 108.51L221.451 110.5H211H210.825L210.688 110.61C206.904 113.636 204.611 116.178 202.823 119.115C201.087 121.967 199.838 125.178 198.156 129.506L198.077 129.707C193.525 133.8 191.474 139.18 189.775 145.675C189.277 147.577 188.809 149.574 188.319 151.667C187.117 156.797 185.779 162.507 183.529 168.832L183.516 168.87L183.508 168.909C178.999 193.364 178.576 210.698 181.996 248.15C170.753 207.091 173.699 178.544 178.496 142.566Z" fill="url(#paint14_linear_6_46)"/>
<path d="M178.496 142.566L178.621 141.626L177.774 142.054C171.214 145.369 166.879 148.647 163.628 152.831C160.787 156.487 158.796 160.808 156.854 166.384C156.399 158.328 156.061 151.855 157.268 145.482C158.597 138.467 161.807 131.546 168.888 122.815L169.395 122.19L168.611 122.012C166.082 121.439 163.8 122.157 161.245 124.039C159.127 125.599 156.776 127.993 153.885 131.197C156.886 123.288 159.884 117.465 164.093 112.814C168.722 107.699 174.854 103.963 184.176 100.468L185.201 100.084L184.239 99.5607C180.986 97.7929 178.218 96.6494 175.042 95.951C172.292 95.3464 169.253 95.0789 165.351 95.0153C168.666 93.1499 171.365 91.8632 174.024 91.0027C177.091 90.0101 180.125 89.5778 184.01 89.4999L184.605 89.488L184.491 88.9039C183.023 81.4096 182.671 77.0481 184.082 70.3915C184.713 72.2063 185.412 73.7181 186.318 75.1563C187.498 77.0292 189.015 78.7561 191.149 80.8564L191.821 81.5175L191.992 80.5906C192.853 75.9141 195.714 68.8233 199.566 60.9897C203.41 53.1703 208.219 44.6566 212.943 37.1505C217.672 29.6379 222.299 23.1599 225.78 19.3967C226.649 18.4575 227.439 17.6959 228.134 17.1321C228.837 16.5622 229.411 16.221 229.85 16.0839C230.274 15.9514 230.479 16.0304 230.606 16.1583C230.77 16.3228 230.937 16.6917 230.993 17.4141C230.972 17.4645 230.943 17.5315 230.908 17.6144C230.823 17.8177 230.699 18.1164 230.543 18.4995C230.23 19.2656 229.79 20.3696 229.279 21.7231C228.256 24.4291 226.947 28.1364 225.802 32.1368C224.657 36.1342 223.672 40.4402 223.304 44.3399C222.939 48.2174 223.174 51.7891 224.565 54.2463L225.095 55.182L225.469 54.174C231.958 36.6933 237.449 27.4206 250.453 13.3562C249.535 16.7103 248.979 19.4596 248.922 22.0338C248.854 25.1199 249.503 27.9277 251.048 31.2128L251.369 31.8959L251.872 31.3336C256.865 25.76 260.899 22.0373 265.134 19.1511C269.024 16.5 273.1 14.5428 278.277 12.5094C274.351 18.8642 272.353 23.5239 271.655 27.6906C270.909 32.1456 271.658 35.9848 273.02 40.6404L273.38 41.8711L273.948 40.7215C281.515 25.4047 286.901 17.5617 299.43 6.65362C299.182 11.096 299.173 14.7065 299.629 18.3225C300.126 22.2575 301.17 26.1786 303.031 31.1746L303.243 31.7409L303.759 31.4275C315.074 24.5652 321.602 22.2623 332.313 19.4542C326.265 25.4373 323.394 29.0361 320.552 34.7782L320.27 35.3476L320.89 35.4877C325.82 36.6021 329.752 37.2117 333.792 36.719C337.838 36.2256 341.947 34.6336 347.258 31.4281L347.331 31.384L347.386 31.3181C349.007 29.3524 350.037 27.5342 350.124 25.0026C350.202 22.7187 349.51 19.9033 347.917 15.9191C353.553 18.338 357.49 21.4812 361.279 24.8158C361.909 25.3701 362.536 25.9305 363.166 26.4941C366.563 29.5328 370.063 32.6632 374.746 35.4305L374.77 35.4449L374.796 35.4564C378.989 37.332 382.093 38.1681 384.922 38.1005C387.614 38.0362 390.002 37.155 392.784 35.683C395.362 40.834 396.826 44.9147 396.932 49.1554C397.041 53.5165 395.716 58.1117 392.555 64.2718L392.168 65.0259L393.015 64.9998C401.673 64.7326 406.359 65.7475 414.131 68.7025C413.296 69.608 412.585 70.4246 412.11 71.38C411.556 72.4959 411.338 73.765 411.502 75.546L411.522 75.7605L411.691 75.8934C424.487 85.9286 430.277 92.4633 439.198 102.532C439.94 103.37 440.704 104.232 441.496 105.123C438.239 105.566 436.028 106.214 434.342 107.206C432.485 108.3 431.313 109.784 430.078 111.732L429.826 112.13L430.207 112.405C439.158 118.867 444.028 123.504 451.255 131.694C448.138 130.023 445.428 128.763 442.612 127.858C439.067 126.719 435.376 126.148 430.515 126L429.518 125.97L430.091 126.787C436.685 136.198 441.247 143.625 444.369 151.324C447.265 158.465 448.93 165.86 449.811 175.313C443.639 164.742 439.947 159.914 433.844 154.137L433.046 153.382L433 154.479C431.09 200.009 428.482 218.381 423.33 244.313C421.76 206.637 419.876 183.73 416.498 149.95L416.489 149.861L416.449 149.78L404.949 126.28L404.945 126.271L404.94 126.262L394.94 107.762L394.822 107.544L394.576 107.506L375.084 104.507L359.1 101.51L345.608 98.5119L345.51 98.49L345.411 98.5081L312.455 104.5H295H294.921L294.845 104.525L273.477 111.482L260.612 108.513L260.508 108.489L260.402 108.51L245.504 111.489L231.605 108.511L231.503 108.489L231.402 108.51L221.451 110.5H211H210.825L210.688 110.61C206.904 113.636 204.611 116.178 202.823 119.115C201.087 121.967 199.838 125.178 198.156 129.506L198.077 129.707C193.525 133.8 191.474 139.18 189.775 145.675C189.277 147.577 188.809 149.574 188.319 151.667C187.117 156.797 185.779 162.507 183.529 168.832L183.516 168.87L183.508 168.909C178.999 193.364 178.576 210.698 181.996 248.15C170.753 207.091 173.699 178.544 178.496 142.566Z" stroke="black"/>
<ellipse cx="49.5" cy="36.5" rx="49.5" ry="36.5" transform="matrix(-1 0 0 1 413 217)" fill="url(#paint15_radial_6_46)"/>
<path d="M336.652 258.241L335.913 258.959L336.934 259.096C339.704 259.467 342.258 259.821 344.637 260.15C354.679 261.542 361.592 262.5 368.5 262.5H368.512L368.525 262.499C372.883 262.285 376.282 261.719 379.626 260.435C382.964 259.153 386.218 257.165 390.298 254.145L390.752 253.808L390.362 253.398C387.337 250.214 384.531 247.976 381.132 246.543C377.735 245.111 373.786 244.5 368.5 244.5C356.857 244.5 346.235 248.932 336.652 258.241Z" fill="url(#paint16_linear_6_46)" stroke="black"/>
<path opacity="0.5" d="M333 256.492C339.361 250.515 343 247.488 352 244.486C361 241.485 383.5 241.485 387 242.986C389 243.486 393.101 246.988 397 250.489M338.5 260.494L337 262.495M340.5 260.494L339.5 262.996M347 261.495L344.5 267.498M353 262.495C352.6 262.896 350.5 266.331 349.5 267.998M359 263.496L357 269.499M362 263.496L360.5 269.499M366 263.996L365.5 270M373 263.496L373.5 269.499M376.5 262.495L377.5 268.498M379 261.495L380.5 267M381.5 260.494L387 263.996M380 260.995L384 266M369.5 263.496V270M356 262.495L353.5 268.498M344.5 260.995L342.5 264.496M384.5 258.994L389.5 262.495M387.5 256.993L392.5 258.994" stroke="black"/>
<mask id="mask1_6_46" style="mask-type:alpha" maskUnits="userSpaceOnUse" x="337" y="245" width="53" height="17">
<path d="M337 258.6C346.5 249.371 357 245 368.5 245C379 245 384 247.429 390 253.743C381.872 259.761 377.152 261.574 368.5 262C360 262 351.5 260.543 337 258.6Z" fill="url(#paint17_linear_6_46)"/>
</mask>
<g mask="url(#mask1_6_46)">
<circle cx="363.5" cy="250.5" r="11.5" fill="url(#paint18_radial_6_46)"/>
<circle cx="363.5" cy="250.5" r="5.22727" fill="#110E14"/>
</g>
<path d="M326 269.294C339.955 280.174 348.42 284.578 364.5 289.794C379.779 292.329 394.5 285 400 277C405.5 269 403.26 258.034 396.5 250.794C390.771 242.21 383.327 241.373 367.5 242.294C352.532 243.193 345.145 245.949 333 256.294L326 269.294Z" fill="url(#paint19_radial_6_46)"/>
<path d="M326 269.294C339.955 280.174 348.42 284.578 364.5 289.794C379.779 292.329 394.5 285 400 277C405.5 269 403.26 258.034 396.5 250.794C390.771 242.21 383.327 241.373 367.5 242.294C352.532 243.193 345.145 245.949 333 256.294L326 269.294Z" fill="url(#paint20_radial_6_46)"/>
<path d="M335 263.5C343 271.5 364.709 278.898 385.5 273.5" stroke="black" stroke-opacity="0.02"/>
<path d="M276.5 320.5C272.578 323.889 270.375 326.5 269 332C268 336 270 341.5 274.5 342.5C279 343.5 281 338.5 285.5 338.5C291 338.5 295.731 341.5 298.5 342.5C303.297 344.233 305.5 343.891 310.5 342.5C313.171 341.757 318.5 337.5 322.5 337.5C328.5 337.5 330 342 333.5 342C336.941 342 338.85 341.5 340.5 336C342 331 340.959 327.722 337 322.5" stroke="black" stroke-opacity="0.5"/>
<path d="M313 333C313 327 308.5 323.5 308 317.5C307.5 311.5 308.144 305.805 308 304C307 291.5 307 273.5 307 262.5C307 251.5 315 248 323.5 242C297 220 281.835 247.707 274 278C261.353 305.357 256.5 334 260 339.5C263.5 345 266.5 348 273 349.5C279.5 351 284.5 349.5 289 348C293.5 346.5 299 342.5 304.5 342.5C310 342.5 313 339 313 333Z" fill="url(#paint21_radial_6_46)"/>
<path d="M345.937 232.504L345.921 232.506L345.906 232.509C339.891 233.657 336.274 234.087 333.818 234.021C331.758 233.966 330.524 233.563 329.363 232.926C341.141 223.046 349.897 219.352 367.094 214.493C377.545 213.418 384.986 213.779 391.461 215.82C397.318 217.666 402.423 220.898 408.271 225.763C402.316 223.87 397.314 222.404 392.148 221.89C386.29 221.307 380.243 221.949 372.345 224.525C369.193 225.553 366.361 226.586 363.71 227.553C361.954 228.193 360.277 228.805 358.64 229.367C354.507 230.785 350.543 231.917 345.937 232.504Z" fill="#282213" stroke="black"/>
<path d="M317.5 379C328.098 380.035 333.974 380.623 346 385C335.08 391.89 328.863 395.187 317.5 399.5C313.5 401.018 295 401.073 289.5 399C280.531 395.62 275.624 392.334 267 385C276.071 380.668 281.46 380.152 292.5 378.5C298 378.5 305 381 307.5 381C309.722 381 313.5 379 317.5 379Z" fill="url(#paint22_linear_6_46)" fill-opacity="0.5"/>
<path d="M267 385C271.641 384.377 274.5 384.5 279.5 384C284.5 384 288.524 385.994 294.5 386.5C302.513 386.862 306.991 386.747 315 386C320.773 384.39 324.5 384.5 331 384C333.991 383.77 340.024 385.101 346 385M267 385C276.071 380.668 281.46 380.152 292.5 378.5C298 378.5 305 381 307.5 381C309.722 381 313.5 379 317.5 379C328.098 380.035 333.974 380.623 346 385M267 385C275.624 392.334 280.531 395.62 289.5 399C295 401.073 313.5 401.018 317.5 399.5C328.863 395.187 335.08 391.89 346 385" stroke="black"/>
<path fill-rule="evenodd" clip-rule="evenodd" d="M283 350.5C294 348.5 310.127 349.264 326.5 350.5C336.981 351.291 349.454 359.968 360.937 367.956L361 368C365 370.783 370.5 395 371 404C391.646 395.937 404 371.5 421 346.5L418.5 358.5C408.5 396.5 400.5 417 374 453C358.595 468.399 349.582 475.361 333 485.5C312 499.5 279.5 492.525 262 482C245.794 472.253 237.608 465.309 226 448C216.069 434.51 212.5 427 203.5 410.5C196 397.5 195 390.5 192 377C187.5 355.5 188 354.5 187.5 334.5C187.5 334.5 189.64 352.5 192 356L192.034 356.05C204.998 375.275 214.256 389.005 235.5 404.5C238.441 393.106 243.174 380.968 248 371C260.093 359.004 270 353.5 283 350.5ZM259 379.5C276.879 375.599 288.5 374 306 374C323.5 374 335.587 376.571 354.5 382C357.655 395.415 357.592 402.856 354.5 416C346.235 431.653 332.5 435 327 432C323 429 322.15 417.974 322 409C308.914 408.806 301.58 409.158 288.5 410.5C285.843 418.796 283 430 278 432.5C267.5 434 248 426.5 248 403C250.44 391.448 252.559 385.932 259 379.5Z" fill="url(#paint23_linear_6_46)"/>
<path d="M361 368C365 370.783 370.5 395 371 404C391.646 395.937 404 371.5 421 346.5L418.5 358.5C408.5 396.5 400.5 417 374 453C358.595 468.399 349.582 475.361 333 485.5C312 499.5 279.5 492.525 262 482C245.794 472.253 237.608 465.309 226 448C216.069 434.51 212.5 427 203.5 410.5C196 397.5 195 390.5 192 377C187.5 355.5 188 354.5 187.5 334.5C187.5 334.5 189.64 352.5 192 356M361 368L360.937 367.956M361 368C360.979 367.985 360.958 367.971 360.937 367.956M192 356L192.034 356.05M192 356C192.011 356.017 192.022 356.033 192.034 356.05M360.937 367.956C349.454 359.968 336.981 351.291 326.5 350.5C310.127 349.264 294 348.5 283 350.5C270 353.5 260.093 359.004 248 371C243.174 380.968 238.441 393.106 235.5 404.5C214.256 389.005 204.998 375.275 192.034 356.05M306 374C288.5 374 276.879 375.599 259 379.5C252.559 385.932 250.44 391.448 248 403C248 426.5 267.5 434 278 432.5C283 430 285.843 418.796 288.5 410.5C301.58 409.158 308.914 408.806 322 409C322.15 417.974 323 429 327 432C332.5 435 346.235 431.653 354.5 416C357.592 402.856 357.655 395.415 354.5 382C335.587 376.571 323.5 374 306 374Z" stroke="black"/>
<ellipse cx="201.5" cy="518" rx="13.5" ry="13" fill="url(#paint24_radial_6_46)" stroke="black"/>
<path d="M392.5 566.5C392.5 568.307 391.176 570.048 388.803 571.366C386.447 572.675 383.159 573.5 379.5 573.5C375.841 573.5 372.553 572.675 370.197 571.366C367.824 570.048 366.5 568.307 366.5 566.5C366.5 564.693 367.824 562.952 370.197 561.634C372.553 560.325 375.841 559.5 379.5 559.5C383.159 559.5 386.447 560.325 388.803 561.634C391.176 562.952 392.5 564.693 392.5 566.5Z" fill="url(#paint25_radial_6_46)" stroke="black"/>
<path d="M190.5 525.422C191 522.922 193.945 517.539 196 511.922C197.633 509.175 200 508.422 204 509.422C208.5 510.922 207.784 513.649 209.5 517.422C214.195 530.013 216.112 546.138 217 606.922C217.27 625.422 206 689.922 214.5 766.922L184 761.422C187.902 672.72 189.811 622.281 190.5 525.422Z" fill="url(#paint26_linear_6_46)" stroke="black"/>
<path d="M367.272 589.702C368.672 573.427 371.264 567.874 378.772 563.702C382.861 562.33 384.996 562.708 388.272 567.202C389.772 572.702 384.272 587.202 395.272 780.202H372.772C370.772 682.202 362.977 653.378 367.272 589.702Z" fill="url(#paint27_linear_6_46)" stroke="black"/>
<ellipse cx="249.5" cy="253.5" rx="49.5" ry="36.5" fill="url(#paint28_radial_6_46)"/>
<path d="M276.348 258.241L277.087 258.959L276.066 259.096C273.296 259.467 270.742 259.821 268.363 260.15C258.321 261.542 251.408 262.5 244.5 262.5H244.488L244.475 262.499C240.117 262.285 236.718 261.719 233.374 260.435C230.036 259.153 226.782 257.165 222.702 254.145L222.248 253.808L222.638 253.398C225.663 250.214 228.469 247.976 231.868 246.543C235.265 245.111 239.214 244.5 244.5 244.5C256.143 244.5 266.765 248.932 276.348 258.241Z" fill="url(#paint29_linear_6_46)" stroke="black"/>
<path opacity="0.5" d="M280 256.492C273.639 250.515 270 247.488 261 244.486C252 241.485 229.5 241.485 226 242.986C224 243.486 219.899 246.988 216 250.489M274.5 260.494L276 262.495M272.5 260.494L273.5 262.996M266 261.495L268.5 267.498M260 262.495C260.4 262.896 262.5 266.331 263.5 267.998M254 263.496L256 269.499M251 263.496L252.5 269.499M247 263.996L247.5 270M240 263.496L239.5 269.499M236.5 262.495L235.5 268.498M234 261.495L232.5 267M231.5 260.494L226 263.996M233 260.995L229 266M243.5 263.496V270M257 262.495L259.5 268.498M268.5 260.995L270.5 264.496M228.5 258.994L223.5 262.495M225.5 256.993L220.5 258.994" stroke="black"/>
<mask id="mask2_6_46" style="mask-type:alpha" maskUnits="userSpaceOnUse" x="223" y="245" width="53" height="17">
<path d="M276 258.6C266.5 249.371 256 245 244.5 245C234 245 229 247.429 223 253.743C231.128 259.761 235.848 261.574 244.5 262C253 262 261.5 260.543 276 258.6Z" fill="url(#paint30_linear_6_46)"/>
</mask>
<g mask="url(#mask2_6_46)">
<circle cx="11.5" cy="11.5" r="11.5" transform="matrix(-1 0 0 1 261 239)" fill="url(#paint31_radial_6_46)"/>
<circle cx="5.22727" cy="5.22727" r="5.22727" transform="matrix(-1 0 0 1 254.727 245.273)" fill="#110E14"/>
</g>
<path d="M287 269.294C273.045 280.174 264.58 284.578 248.5 289.794C233.221 292.329 218.5 285 213 277C207.5 269 209.74 258.034 216.5 250.794C222.229 242.21 229.673 241.373 245.5 242.294C260.468 243.193 267.855 245.949 280 256.294L287 269.294Z" fill="url(#paint32_radial_6_46)"/>
<path d="M287 269.294C273.045 280.174 264.58 284.578 248.5 289.794C233.221 292.329 218.5 285 213 277C207.5 269 209.74 258.034 216.5 250.794C222.229 242.21 229.673 241.373 245.5 242.294C260.468 243.193 267.855 245.949 280 256.294L287 269.294Z" fill="url(#paint33_radial_6_46)"/>
<path d="M278 263.5C270 271.5 248.291 278.898 227.5 273.5" stroke="black" stroke-opacity="0.02"/>
<circle cx="375.5" cy="323.5" r="1.5" fill="#AE868F" fill-opacity="0.5"/>
<circle cx="392.5" cy="323.5" r="1.5" fill="#9E8989" fill-opacity="0.5"/>
<path d="M261.5 334.5C251.112 350.734 246.674 359.934 241 376.5M351 330.5C361.165 349.559 365.135 360.663 370 381" stroke="black" stroke-opacity="0.02"/>
<path d="M196.5 374C195.79 378.176 195.661 380.275 196 383.5M201 377.5C200.565 379.475 200.476 380.316 200.5 381.5M199.5 387C198.832 389.479 198.498 391.107 198 394.5M208 385.5C206.797 388.116 206.323 389.453 206 391.5M209 393.5C207.767 396.404 207.203 398.141 206.5 401.5M203 395C202.104 397.392 201.786 398.586 201.5 400.5M216.5 394.5C215.477 396.947 214.924 398.447 214 401.5M209 405.5C207.901 407.181 207.348 408.263 206.5 410.5M223.5 404C222.087 406.062 221.319 407.364 220 410M214.5 410.5C213.256 412.463 212.646 413.625 212 416M225.5 421.5C224.191 424.773 223.782 426.645 223.5 430M244 416.5C241.496 425.049 240.301 430.228 239 441M252 434C248.283 442.409 246.458 447.973 244 460.5M261 443C259.025 453.663 258.328 460.377 258 474M287.5 427C282.38 437.727 279 447 278.5 458C278 469 280 475 280 475M316 424.5C316 424.5 318 436.5 318 449C318 461.5 317.081 465.072 316 473.5M303.5 439C300.917 456.934 298.933 466.016 295 481.5M334.5 442C337.007 450.234 337.277 454.657 337.5 462.5M357.5 444C358.017 449.502 357.856 451.534 357.5 455M374.5 435C374.539 437.307 374.376 438.322 374 440M380.5 407.5C381.483 411.21 381.608 412.729 381.5 415M363 409.5C365.266 421.344 365.456 426.895 365.5 436.5M349 435C348.941 442.229 348.469 445.466 347.5 451M388.5 411C389.098 415.391 388.967 417.474 388.5 421M393.5 395.5C393.832 398.264 393.791 399.659 393.5 402M399 401C399.097 404.72 398.957 406.587 398.321 409.5M401.5 385C402.44 388.578 402.648 390.663 402.5 394.5M407 377.5C407.148 380.162 407.24 381.649 406.5 385M411.5 366C411.852 368.499 411.926 370.121 411.5 374M255 371.5C252.719 374.308 250.113 381.465 249.5 383.5M266 365.5C263.982 369.441 263.344 371.181 262.5 374M280 357.5C277.777 363.079 276.947 365.766 276 370M297.5 357.5C295.405 361.581 294.531 363.716 294 367M316 357.5C316.608 362.828 316.58 365.073 316 368M331.5 359.5C333.403 364.932 333.973 367.471 334.5 371.5M343 367C344.363 371.023 344.707 372.912 345 376M355.5 371.5C359.052 378.671 360.601 382.314 363 388.5" stroke="black"/>
</g>
<defs>
<linearGradient id="paint0_linear_6_46" x1="579.5" y1="474.5" x2="-6.00002" y2="705.5" gradientUnits="userSpaceOnUse">
<stop stop-color="#F8D1D1"/>
<stop offset="0.445" stop-color="#A94E3B"/>
<stop offset="1" stop-color="#6F1F0A"/>
</linearGradient>
<linearGradient id="paint1_linear_6_46" x1="59.5" y1="486" x2="108.5" y2="561.5" gradientUnits="userSpaceOnUse">
<stop stop-color="#6D2F20"/>
<stop offset="1" stop-color="#873621" stop-opacity="0.03"/>
</linearGradient>
<linearGradient id="paint2_linear_6_46" x1="579.5" y1="474.5" x2="-6.00006" y2="705.5" gradientUnits="userSpaceOnUse">
<stop stop-color="#F8D1D1"/>
<stop offset="0.445" stop-color="#A94E3B"/>
<stop offset="1" stop-color="#6F1F0A"/>
</linearGradient>
<radialGradient id="paint3_radial_6_46" cx="0" cy="0" r="1" gradientUnits="userSpaceOnUse" gradientTransform="translate(304 451.5) rotate(153.766) scale(231.884 211.934)">
<stop stop-opacity="0.7"/>
<stop offset="1" stop-opacity="0"/>
</radialGradient>
<linearGradient id="paint4_linear_6_46" x1="393" y1="463.5" x2="246.5" y2="461.5" gradientUnits="userSpaceOnUse">
<stop offset="0.11" stop-color="#764C41"/>
<stop offset="0.3" stop-color="#9F828A"/>
<stop offset="1" stop-color="#1C0200"/>
</linearGradient>
<radialGradient id="paint5_radial_6_46" cx="0" cy="0" r="1" gradientUnits="userSpaceOnUse" gradientTransform="translate(292 472.5) rotate(-9.9194) scale(206.081 290.789)">
<stop stop-color="#371208"/>
<stop offset="0.626514" stop-color="#9D4D3C"/>
<stop offset="1" stop-color="#FFA491"/>
</radialGradient>
<linearGradient id="paint6_linear_6_46" x1="297.5" y1="500" x2="136.5" y2="464.5" gradientUnits="userSpaceOnUse">
<stop stop-color="#3E2E29" stop-opacity="0"/>
<stop offset="1"/>
<stop offset="1.0001" stop-color="#673829"/>
</linearGradient>
<linearGradient id="paint7_linear_6_46" x1="588.5" y1="440.5" x2="218.5" y2="347.5" gradientUnits="userSpaceOnUse">
<stop offset="1" stop-color="#9D4D3C"/>
<stop stop-color="#371208"/>
</linearGradient>
<linearGradient id="paint8_linear_6_46" x1="181.5" y1="246" x2="432" y2="253" gradientUnits="userSpaceOnUse">
<stop stop-color="#36241F"/>
<stop offset="0.375" stop-color="#A38989"/>
<stop offset="0.845" stop-color="#C9B4B7"/>
<stop offset="1" stop-color="#F8EEF1"/>
</linearGradient>
<radialGradient id="paint9_radial_6_46" cx="0" cy="0" r="1" gradientUnits="userSpaceOnUse" gradientTransform="translate(388.5 138.5) rotate(124.544) scale(83.769 74.1916)">
<stop stop-color="#FEFAFD" stop-opacity="0.39"/>
<stop offset="1" stop-color="white" stop-opacity="0"/>
</radialGradient>
<radialGradient id="paint10_radial_6_46" cx="0" cy="0" r="1" gradientUnits="userSpaceOnUse" gradientTransform="translate(415.5 378) rotate(-138.393) scale(89.6061 55.4982)">
<stop stop-color="#F8EFF4" stop-opacity="0.34"/>
<stop offset="1" stop-color="#F9F2F6" stop-opacity="0"/>
</radialGradient>
<radialGradient id="paint11_radial_6_46" cx="0" cy="0" r="1" gradientUnits="userSpaceOnUse" gradientTransform="translate(317.5 293) rotate(70.0169) scale(46.8188 23.7241)">
<stop offset="0.205" stop-color="#F2E4E6" stop-opacity="0.14"/>
<stop offset="1" stop-color="#BEA8A9" stop-opacity="0"/>
<stop offset="1.0001" stop-color="#BEA8A9" stop-opacity="0"/>
</radialGradient>
<radialGradient id="paint12_radial_6_46" cx="0" cy="0" r="1" gradientUnits="userSpaceOnUse" gradientTransform="translate(221 374) rotate(43.8147) scale(51.2762 44.2635)">
<stop stop-color="#F1E5F0" stop-opacity="0.04"/>
<stop offset="1" stop-color="#F1E2F0" stop-opacity="0"/>
</radialGradient>
<radialGradient id="paint13_radial_6_46" cx="0" cy="0" r="1" gradientUnits="userSpaceOnUse" gradientTransform="translate(297.5 118.5) rotate(-90.2524) scale(113.501 137.146)">
<stop stop-color="#201E1A"/>
<stop offset="0.0001" stop-color="#2F2B20"/>
<stop offset="1" stop-color="#3E392C"/>
</radialGradient>
<linearGradient id="paint14_linear_6_46" x1="303" y1="101.5" x2="359" y2="28.5" gradientUnits="userSpaceOnUse">
<stop stop-color="#231612" stop-opacity="0.75"/>
<stop offset="1" stop-opacity="0"/>
</linearGradient>
<radialGradient id="paint15_radial_6_46" cx="0" cy="0" r="1" gradientUnits="userSpaceOnUse" gradientTransform="translate(49.5 36.5) rotate(90) scale(36.5 49.5)">
<stop offset="0.375" stop-color="#3D1A39" stop-opacity="0.08"/>
<stop offset="1" stop-color="#483B3C" stop-opacity="0"/>
</radialGradient>
<linearGradient id="paint16_linear_6_46" x1="336" y1="258.6" x2="391.473" y2="253.455" gradientUnits="userSpaceOnUse">
<stop stop-color="#92827F"/>
<stop offset="1" stop-color="#D8C8CC"/>
</linearGradient>
<linearGradient id="paint17_linear_6_46" x1="336" y1="258.6" x2="391.473" y2="253.455" gradientUnits="userSpaceOnUse">
<stop stop-color="#625451"/>
<stop offset="1" stop-color="#BFB7B9"/>
</linearGradient>
<radialGradient id="paint18_radial_6_46" cx="0" cy="0" r="1" gradientUnits="userSpaceOnUse" gradientTransform="translate(363.5 250.5) rotate(90) scale(11.5)">
<stop offset="0.135" stop-color="#DAB696"/>
<stop offset="0.53" stop-color="#6B8383"/>
<stop offset="1" stop-color="#515C78"/>
</radialGradient>
<radialGradient id="paint19_radial_6_46" cx="0" cy="0" r="1" gradientUnits="userSpaceOnUse" gradientTransform="translate(350 295.5) rotate(-65.9917) scale(22.1201 43.4921)">
<stop offset="1" stop-color="#4E2E59" stop-opacity="0"/>
<stop stop-color="#1E0524" stop-opacity="0.12"/>
</radialGradient>
<radialGradient id="paint20_radial_6_46" cx="0" cy="0" r="1" gradientUnits="userSpaceOnUse" gradientTransform="translate(402.5 274) rotate(-147.995) scale(23.585 37.1594)">
<stop stop-color="#1E0524" stop-opacity="0.03"/>
<stop offset="1" stop-color="#4E2E59" stop-opacity="0"/>
</radialGradient>
<radialGradient id="paint21_radial_6_46" cx="0" cy="0" r="1" gradientUnits="userSpaceOnUse" gradientTransform="translate(316 321.5) rotate(-90.7538) scale(76.0066 52.2698)">
<stop stop-opacity="0.33"/>
<stop offset="1" stop-opacity="0"/>
</radialGradient>
<linearGradient id="paint22_linear_6_46" x1="307" y1="373.5" x2="307" y2="406.5" gradientUnits="userSpaceOnUse">
<stop stop-color="#AF878D" stop-opacity="0.5"/>
<stop offset="0.165" stop-color="#915A62"/>
<stop offset="0.367256" stop-color="#300606"/>
<stop offset="0.74" stop-color="#915A62"/>
<stop offset="1" stop-color="#AF878D" stop-opacity="0.5"/>
</linearGradient>
<linearGradient id="paint23_linear_6_46" x1="304" y1="495.5" x2="310" y2="347" gradientUnits="userSpaceOnUse">
<stop stop-color="#15110E"/>
<stop offset="0.61" stop-color="#493F35"/>
</linearGradient>
<radialGradient id="paint24_radial_6_46" cx="0" cy="0" r="1" gradientUnits="userSpaceOnUse" gradientTransform="translate(199.5 515.5) rotate(66.1941) scale(18.5809 19.2956)">
<stop stop-color="#B2948A"/>
<stop offset="1" stop-color="#240000"/>
</radialGradient>
<radialGradient id="paint25_radial_6_46" cx="0" cy="0" r="1" gradientUnits="userSpaceOnUse" gradientTransform="translate(377.5 565.058) rotate(52.5946) scale(12.3467 16.753)">
<stop stop-color="#B2948A"/>
<stop offset="1" stop-color="#240000"/>
</radialGradient>
<linearGradient id="paint26_linear_6_46" x1="213.5" y1="521" x2="176.5" y2="760" gradientUnits="userSpaceOnUse">
<stop stop-color="#600E04"/>
<stop offset="1" stop-color="#822417"/>
</linearGradient>
<linearGradient id="paint27_linear_6_46" x1="389" y1="568.5" x2="365" y2="572.5" gradientUnits="userSpaceOnUse">
<stop stop-color="#FF8E7F"/>
<stop offset="1" stop-color="#5E0401"/>
</linearGradient>
<radialGradient id="paint28_radial_6_46" cx="0" cy="0" r="1" gradientUnits="userSpaceOnUse" gradientTransform="translate(249.5 253.5) rotate(90) scale(36.5 49.5)">
<stop offset="0.375" stop-color="#3D1A39" stop-opacity="0.08"/>
<stop offset="1" stop-color="#483B3C" stop-opacity="0"/>
</radialGradient>
<linearGradient id="paint29_linear_6_46" x1="277" y1="258.6" x2="221.527" y2="253.455" gradientUnits="userSpaceOnUse">
<stop stop-color="#564946"/>
<stop offset="1" stop-color="#9A9294"/>
</linearGradient>
<linearGradient id="paint30_linear_6_46" x1="277" y1="258.6" x2="221.527" y2="253.455" gradientUnits="userSpaceOnUse">
<stop stop-color="#625451"/>
<stop offset="1" stop-color="#BFB7B9"/>
</linearGradient>
<radialGradient id="paint31_radial_6_46" cx="0" cy="0" r="1" gradientUnits="userSpaceOnUse" gradientTransform="translate(11.5 11.5) rotate(90) scale(11.5)">
<stop offset="0.135" stop-color="#7E654D"/>
<stop offset="0.53" stop-color="#426161"/>
<stop offset="1" stop-color="#373F54"/>
</radialGradient>
<radialGradient id="paint32_radial_6_46" cx="0" cy="0" r="1" gradientUnits="userSpaceOnUse" gradientTransform="translate(263 295.5) rotate(-114.008) scale(22.1201 43.4921)">
<stop offset="1" stop-color="#4E2E59" stop-opacity="0"/>
<stop stop-color="#1E0524" stop-opacity="0.12"/>
</radialGradient>
<radialGradient id="paint33_radial_6_46" cx="0" cy="0" r="1" gradientUnits="userSpaceOnUse" gradientTransform="translate(210.5 274) rotate(-32.0054) scale(23.585 37.1594)">
<stop stop-color="#1E0524" stop-opacity="0.03"/>
<stop offset="1" stop-color="#4E2E59" stop-opacity="0"/>
</radialGradient>
<clipPath id="clip0_6_46">
<rect width="600" height="600" fill="white"/>
</clipPath>
</defs>
</svg>
